<?xml version="1.0" standalone="no"?>
<!DOCTYPE svg PUBLIC "-//W3C//DTD SVG 20010904//EN"
 "http://www.w3.org/TR/2001/REC-SVG-20010904/DTD/svg10.dtd">
<svg version="1.0" xmlns="http://www.w3.org/2000/svg"
 width="720.000000pt" height="720.000000pt" viewBox="0 0 720.000000 720.000000"
 preserveAspectRatio="xMidYMid meet">

<g transform="translate(0.000000,720.000000) scale(0.100000,-0.100000)"
fill="#000000" stroke="none">
<path d="M3305 6659 c-718 -73 -1368 -382 -1875 -889 -512 -511 -820 -1164
-889 -1884 -14 -139 -14 -443 -1 -577 54 -546 251 -1068 568 -1504 499 -688
1225 -1125 2077 -1252 172 -25 658 -25 830 0 852 127 1578 564 2077 1252 317
436 514 958 568 1504 13 134 13 438 -1 577 -69 720 -377 1373 -889 1884 -474
475 -1057 767 -1735 872 -150 23 -577 33 -730 17z m1067 -908 c149 -51 243
-167 269 -330 64 -391 -365 -705 -729 -534 -238 111 -292 450 -111 690 41 55
138 130 204 158 113 48 257 54 367 16z m-320 -1170 c99 -38 166 -107 204 -206
30 -79 26 -261 -8 -385 -15 -52 -140 -401 -279 -775 -329 -888 -329 -888 -329
-955 0 -74 18 -100 71 -100 81 0 178 75 365 283 230 256 266 281 313 221 62
-79 -19 -225 -259 -464 -363 -363 -801 -584 -1125 -567 -117 6 -172 23 -240
75 -153 116 -154 345 -4 810 23 70 166 442 319 827 153 385 279 714 281 730 6
80 -19 115 -81 115 -96 0 -195 -78 -409 -324 -88 -101 -177 -194 -197 -206
-34 -21 -38 -22 -68 -7 -48 22 -63 66 -42 120 24 63 106 167 251 316 243 250
438 381 693 466 131 43 213 55 357 51 105 -2 141 -7 187 -25z"/>
</g>
</svg>
