<?xml version="1.0" encoding="UTF-8" standalone="no"?>
<svg
   xmlns:dc="http://purl.org/dc/elements/1.1/"
   xmlns:cc="http://creativecommons.org/ns#"
   xmlns:rdf="http://www.w3.org/1999/02/22-rdf-syntax-ns#"
   xmlns:svg="http://www.w3.org/2000/svg"
   xmlns="http://www.w3.org/2000/svg"
   xmlns:sodipodi="http://sodipodi.sourceforge.net/DTD/sodipodi-0.dtd"
   xmlns:inkscape="http://www.inkscape.org/namespaces/inkscape"
   viewBox="0 0 512 512"
   width="512"
   height="512"
   version="1.1"
   id="svg8"
   sodipodi:docname="mystery-man.svg"
   inkscape:version="1.0.2-2 (e86c870879, 2021-01-15)">
  <metadata
     id="metadata14">
    <rdf:RDF>
      <cc:Work
         rdf:about="">
        <dc:format>image/svg+xml</dc:format>
        <dc:type
           rdf:resource="http://purl.org/dc/dcmitype/StillImage" />
        <dc:title></dc:title>
      </cc:Work>
    </rdf:RDF>
  </metadata>
  <defs
     id="defs12" />
  <sodipodi:namedview
     pagecolor="#ffffff"
     bordercolor="#666666"
     borderopacity="1"
     objecttolerance="10"
     gridtolerance="10"
     guidetolerance="10"
     inkscape:pageopacity="0"
     inkscape:pageshadow="2"
     inkscape:window-width="1920"
     inkscape:window-height="1057"
     id="namedview10"
     showgrid="false"
     inkscape:zoom="1.2291505"
     inkscape:cx="244.32383"
     inkscape:cy="193.29729"
     inkscape:window-x="-8"
     inkscape:window-y="-8"
     inkscape:window-maximized="1"
     inkscape:current-layer="svg8" />
  <g
     id="g14"
     transform="matrix(0.29576416,0,0,0.29576414,1.0707057,0.31374718)"
     style="fill:#ffffff">
    <path
       style="fill:#ffffff;fill-opacity:1;stroke-width:0.81287"
       d="m 1070.5504,1478.3044 c 0,-0.1687 0.6401,-0.8089 1.4225,-1.4225 1.2893,-1.011 1.318,-0.9823 0.307,0.307 -1.062,1.3539 -1.7295,1.7846 -1.7295,1.1155 z m 50.398,-60.1524 c 0,-0.1687 0.6401,-0.8089 1.4225,-1.4225 1.2893,-1.0111 1.318,-0.9824 0.3069,0.3069 -1.0619,1.354 -1.7294,1.7847 -1.7294,1.1156 z m 35.3598,-40.3366 c 0.8092,-0.8941 1.6542,-1.6257 1.8778,-1.6257 0.2235,0 -0.2557,0.7316 -1.0649,1.6257 -0.8092,0.8942 -1.6542,1.6258 -1.8777,1.6258 -0.2236,0 0.2556,-0.7316 1.0648,-1.6258 z m 35.7663,-39.8306 c 0.8092,-0.8942 1.6542,-1.6258 1.8778,-1.6258 0.2235,0 -0.2557,0.7316 -1.0649,1.6258 -0.8092,0.8941 -1.6542,1.6257 -1.8777,1.6257 -0.2236,0 0.2556,-0.7316 1.0648,-1.6257 z m -274.27961,-41.1177 c 0.039,-0.947 0.23167,-1.1395 0.49114,-0.4911 0.23483,0.5868 0.20598,1.2879 -0.0642,1.558 -0.27012,0.2701 -0.46228,-0.21 -0.427,-1.0669 z m -62.46658,-8.4674 c 0,-1.5648 0.16729,-2.2049 0.37173,-1.4225 0.20452,0.7824 0.20452,2.0626 0,2.845 -0.20444,0.7824 -0.37173,0.1423 -0.37173,-1.4225 z m -136.04164,-52.6334 c -1.0111,-1.2893 -0.98235,-1.318 0.30691,-0.3069 1.35404,1.0619 1.78464,1.7294 1.11561,1.7294 -0.16879,0 -0.80892,-0.6401 -1.42252,-1.4225 z m 159.24454,-12.1796 c 1.91196,-0.1717 4.83829,-0.1693 6.50297,0.01 1.66476,0.1747 0.10047,0.3152 -3.47616,0.3122 -3.57663,0 -4.93868,-0.1459 -3.02681,-0.3176 z m -10.58877,-40.6425 c 1.90008,-0.1711 5.00931,-0.1711 6.9094,0 1.90008,0.1711 0.34547,0.3112 -3.4547,0.3112 -3.80017,0 -5.35479,-0.1401 -3.4547,-0.3112 z m 44.75868,-0.7729 c 0.58681,-0.2349 1.28791,-0.206 1.55803,0.064 0.27011,0.2701 -0.21005,0.4622 -1.0669,0.427 -0.94699,-0.039 -1.13956,-0.2317 -0.49113,-0.4912 z m -86.62151,-8.9838 c 2.12362,-0.1675 5.59864,-0.1675 7.72227,0 2.12362,0.1674 0.38611,0.3044 -3.86114,0.3044 -4.24724,0 -5.98475,-0.137 -3.86113,-0.3044 z m 32.92125,-0.01 c 5.9238,-0.1389 15.61728,-0.1389 21.54107,0 5.92379,0.139 1.07705,0.2526 -10.77053,0.2526 -11.84759,0 -16.69433,-0.1136 -10.77054,-0.2526 z m -82.86198,-5.6378 c 0.58679,-0.2348 1.2879,-0.206 1.558,0.064 0.27011,0.2701 -0.20999,0.4623 -1.06689,0.427 -0.94695,-0.039 -1.13956,-0.2316 -0.49111,-0.4911 z m 201.59188,0 c 0.58681,-0.2348 1.28791,-0.206 1.55802,0.064 0.27012,0.2701 -0.21004,0.4623 -1.06689,0.427 -0.94699,-0.039 -1.13956,-0.2316 -0.49113,-0.4911 z M 669.70157,1100.017 c -1.0111,-1.2893 -0.98235,-1.318 0.30691,-0.307 1.35404,1.0619 1.78464,1.7295 1.11562,1.7295 -0.1688,0 -0.80893,-0.6402 -1.42253,-1.4225 z m -28.49919,-17.0159 c 0.58679,-0.2349 1.2879,-0.206 1.55801,0.064 0.27011,0.2701 -0.21,0.4623 -1.0669,0.427 -0.94695,-0.039 -1.13956,-0.2317 -0.49111,-0.4912 z m 460.03392,-4.8604 c 0.5588,-0.2254 1.4733,-0.2254 2.0321,0 0.5589,0.2255 0.1016,0.4101 -1.0161,0.4101 -1.1176,0 -1.5749,-0.1846 -1.016,-0.4101 z m -459.66282,-0.8378 c 0.7909,-0.206 1.88828,-0.1926 2.43861,0.03 0.55034,0.2226 -0.0967,0.3912 -1.43799,0.3747 -1.34123,-0.016 -1.79152,-0.1987 -1.00062,-0.4049 z m 29.25905,-0.02 c 1.23561,-0.1868 3.06457,-0.1818 4.06435,0.011 0.99978,0.1929 -0.0111,0.3458 -2.24657,0.3397 -2.23539,-0.01 -3.05339,-0.164 -1.81778,-0.3509 z m 72.79153,-8.9135 c 0.58679,-0.2349 1.2879,-0.206 1.55801,0.064 0.2701,0.2701 -0.21,0.4623 -1.0669,0.427 -0.94695,-0.039 -1.13956,-0.2317 -0.49111,-0.4912 z m 13.76799,0.017 c 0.55885,-0.2255 1.47333,-0.2255 2.03218,0 0.55885,0.2255 0.10161,0.41 -1.01609,0.41 -1.11769,0 -1.57493,-0.1845 -1.01609,-0.41 z M 862.66057,983.98 c 0.009,-1.78832 0.1755,-2.42423 0.36994,-1.41302 0.19443,1.01113 0.18704,2.4743 -0.0163,3.25149 -0.20346,0.7771 -0.36254,-0.0504 -0.35352,-1.83847 z m -0.85945,-35.7663 c 0.0163,-1.34124 0.19875,-1.79149 0.40489,-1.00065 0.20606,0.79093 0.19257,1.8883 -0.0301,2.43861 -0.22265,0.5504 -0.39124,-0.0967 -0.37474,-1.43796 z m 245.65768,-59.13633 -1.5485,-1.82896 1.8289,1.54852 c 1.7188,1.4552 2.199,2.1094 1.5485,2.1094 -0.1542,0 -0.9773,-0.82303 -1.8289,-1.82896 z m -91.5231,0.46082 c 0.5868,-0.23484 1.2879,-0.20598 1.558,0.0642 0.2701,0.27012 -0.21,0.46228 -1.0669,0.427 -0.947,-0.039 -1.1396,-0.23166 -0.4911,-0.49113 z m 25.961,-1.60884 c 0.5589,-0.22549 1.4733,-0.22549 2.0322,0 0.5588,0.22549 0.1016,0.41002 -1.0161,0.41002 -1.1177,0 -1.5749,-0.18453 -1.0161,-0.41002 z M 934.80103,862.96149 c 0,-0.16875 0.64014,-0.80888 1.42253,-1.42252 1.28929,-1.01105 1.31799,-0.98235 0.30694,0.30694 -1.06194,1.354 -1.72947,1.78466 -1.72947,1.11558 z m 4.26757,-28.70383 c 0.78239,-0.20452 2.06266,-0.20452 2.84505,0 0.78239,0.20443 0.14225,0.37172 -1.42252,0.37172 -1.56478,0 -2.20491,-0.16729 -1.42253,-0.37172 z M 610.59406,805.55463 c 0,-1.1177 0.18451,-1.57494 0.41001,-1.01609 0.22549,0.55885 0.22549,1.47333 0,2.03218 -0.2255,0.55885 -0.41001,0.10161 -0.41001,-1.01609 z m 321.36193,-3.25148 c 0.80921,-0.89416 1.65419,-1.62574 1.87773,-1.62574 0.22354,0 -0.25565,0.73158 -1.06486,1.62574 -0.80921,0.89416 -1.65419,1.62574 -1.87773,1.62574 -0.22354,0 0.25564,-0.73158 1.06486,-1.62574 z m 173.38321,-23.36576 c 3.7096,-0.15097 9.5623,-0.15012 13.006,0.002 3.4436,0.15199 0.4084,0.2755 -6.7448,0.27447 -7.1533,-8.1e-4 -9.9708,-0.12539 -6.2612,-0.27634 z M 664.32956,761.07633 c 1.23562,-0.18685 3.06457,-0.18185 4.06436,0.0111 0.99978,0.19294 -0.0111,0.34581 -2.24657,0.33972 -2.2354,-0.007 -3.0534,-0.16398 -1.81779,-0.35082 z m 16.25741,0 c 1.23561,-0.18685 3.06457,-0.18185 4.06436,0.0111 0.99978,0.19294 -0.0111,0.34581 -2.24658,0.33972 -2.23539,-0.007 -3.05339,-0.16398 -1.81778,-0.35082 z M 387.73921,373.61351 c 0,-0.1688 0.64014,-0.80893 1.42252,-1.42253 1.28927,-1.0111 1.31802,-0.98235 0.30691,0.30691 -1.06191,1.35404 -1.72943,1.78464 -1.72943,1.11562 z M 538.12025,210.22654 c 0,-0.16879 0.64013,-0.80893 1.42252,-1.42252 1.28926,-1.01111 1.31801,-0.98235 0.30691,0.30691 -1.06191,1.35404 -1.72943,1.78464 -1.72943,1.11561 z m 5.69009,-4.87722 c 0,-0.16879 0.64014,-0.80893 1.42252,-1.42252 1.28927,-1.01111 1.31802,-0.98236 0.30691,0.3069 -1.06191,1.35404 -1.72943,1.78464 -1.72943,1.11562 z M 843.17956,61.989438 c 2.58704,-0.161802 6.61075,-0.160301 8.94157,0.0033 2.33083,0.163636 0.2142,0.296019 -4.70367,0.294185 -4.91787,-0.0019 -6.82494,-0.135718 -4.2379,-0.297519 z"
       id="path28" />
    <path
       style="fill:#ffffff;fill-opacity:1;stroke-width:0.81287"
       d="m 1030.7197,1530.3281 c 0,-0.1687 0.6402,-0.8088 1.4226,-1.4225 1.2893,-1.011 1.318,-0.9823 0.3069,0.307 -1.0619,1.354 -1.7295,1.7846 -1.7295,1.1155 z m 13.8188,-18.696 c 0,-0.1687 0.6402,-0.8089 1.4226,-1.4225 1.2893,-1.011 1.318,-0.9824 0.3069,0.3069 -1.0619,1.354 -1.7295,1.7847 -1.7295,1.1156 z m 17.4768,-22.4534 c 0.8092,-0.8942 1.6542,-1.6258 1.8777,-1.6258 0.2235,0 -0.2557,0.7316 -1.0649,1.6258 -0.8092,0.8941 -1.6542,1.6257 -1.8777,1.6257 -0.2235,0 0.2556,-0.7316 1.0649,-1.6257 z m 12.5995,-15.7515 c 0,-0.1687 0.6401,-0.8089 1.4225,-1.4225 1.2893,-1.0111 1.318,-0.9824 0.3069,0.3069 -1.0619,1.354 -1.7294,1.7847 -1.7294,1.1156 z m 7.3158,-9.0411 c 1.05,-1.1177 2.092,-2.0321 2.3155,-2.0321 0.2236,0 -0.4527,0.9144 -1.5026,2.0321 -1.05,1.1177 -2.092,2.0322 -2.3156,2.0322 -0.2235,0 0.4527,-0.9145 1.5027,-2.0322 z m 22.7604,-27.4855 c 0,-0.1399 1.1888,-1.3287 2.6418,-2.6418 l 2.6418,-2.3875 -2.3875,2.6419 c -2.2254,2.4625 -2.8961,3.0155 -2.8961,2.3874 z m 21.1346,-24.4387 c 0,-0.1687 0.6401,-0.8089 1.4225,-1.4225 1.2893,-1.011 1.318,-0.9824 0.307,0.3069 -1.062,1.354 -1.7295,1.7847 -1.7295,1.1156 z m 7.3158,-8.2282 c 1.5167,-1.5647 2.9404,-2.845 3.164,-2.845 0.2235,0 -0.8344,1.2803 -2.3511,2.845 -1.5167,1.5648 -2.9404,2.8451 -3.1639,2.8451 -0.2236,0 0.8344,-1.2803 2.351,-2.8451 z m 4.0644,-4.7251 c 0,-0.1399 1.1888,-1.3287 2.6418,-2.6418 l 2.6418,-2.3875 -2.3874,2.6418 c -2.2255,2.4626 -2.8962,3.0155 -2.8962,2.3875 z m 35.3598,-39.5763 c 1.7463,-1.7883 3.3579,-3.2515 3.5815,-3.2515 0.2235,0 -1.0224,1.4632 -2.7686,3.2515 -1.7462,1.7883 -3.3579,3.2515 -3.5814,3.2515 -0.2236,0 1.0223,-1.4632 2.7685,-3.2515 z m 7.7223,-8.5352 c 1.05,-1.1177 2.092,-2.0321 2.3156,-2.0321 0.2235,0 -0.4527,0.9144 -1.5027,2.0321 -1.05,1.1177 -2.092,2.0322 -2.3156,2.0322 -0.2235,0 0.4527,-0.9145 1.5027,-2.0322 z m 21.5411,-23.9796 c 0.8092,-0.8942 1.6542,-1.6258 1.8777,-1.6258 0.2236,0 -0.2556,0.7316 -1.0648,1.6258 -0.8093,0.8941 -1.6542,1.6257 -1.8778,1.6257 -0.2235,0 0.2557,-0.7316 1.0649,-1.6257 z m 4.4708,-5.1842 c 0,-0.1687 0.6401,-0.8089 1.4225,-1.4225 1.2893,-1.0111 1.318,-0.9824 0.3069,0.3069 -1.0619,1.354 -1.7294,1.7847 -1.7294,1.1156 z m 4.8772,-4.9767 c 1.05,-1.1177 2.092,-2.0322 2.3155,-2.0322 0.2236,0 -0.4527,0.9145 -1.5026,2.0322 -1.05,1.1177 -2.092,2.0322 -2.3156,2.0322 -0.2235,0 0.4527,-0.9145 1.5027,-2.0322 z m -355.97314,-13.8865 c 0.039,-0.947 0.23167,-1.1396 0.49114,-0.4912 0.23484,0.5869 0.20598,1.288 -0.0642,1.5581 -0.27011,0.2701 -0.46228,-0.2101 -0.427,-1.0669 z m 62.59103,-2.4386 c 0.039,-0.947 0.23167,-1.1396 0.49114,-0.4912 0.23483,0.5868 0.20598,1.2879 -0.0642,1.5581 -0.27012,0.2701 -0.46228,-0.2101 -0.427,-1.0669 z m 0,-6.503 c 0.039,-0.947 0.23167,-1.1396 0.49114,-0.4911 0.23483,0.5868 0.20598,1.2879 -0.0642,1.558 -0.27012,0.2701 -0.46228,-0.2101 -0.427,-1.0669 z m 323.45831,-11.213 c 0,-0.1687 0.6401,-0.8089 1.4225,-1.4225 1.2893,-1.011 1.318,-0.9824 0.307,0.3069 -1.062,1.354 -1.7295,1.7847 -1.7295,1.1156 z m 36.9856,-42.7752 c 0.8092,-0.8941 1.6542,-1.6257 1.8777,-1.6257 0.2236,0 -0.2556,0.7316 -1.0648,1.6257 -0.8092,0.8942 -1.6542,1.6258 -1.8778,1.6258 -0.2235,0 0.2557,-0.7316 1.0649,-1.6258 z M 885.06352,1227.692 c 0.58681,-0.2348 1.28791,-0.206 1.55803,0.064 0.27012,0.2701 -0.21004,0.4623 -1.06689,0.427 -0.947,-0.039 -1.13956,-0.2317 -0.49114,-0.4911 z m 6.46167,-4.084 c 1.01113,-0.1945 2.4743,-0.1871 3.25148,0.016 0.77711,0.2035 -0.0504,0.3626 -1.83847,0.3536 -1.78831,-0.01 -2.42422,-0.1755 -1.41301,-0.37 z m 405.00321,-5.4221 c 0,-0.1688 0.6401,-0.8089 1.4225,-1.4225 1.2893,-1.0111 1.318,-0.9824 0.307,0.3069 -1.062,1.354 -1.7295,1.7847 -1.7295,1.1156 z m -412.70532,-1.1076 c 2.58704,-0.1617 6.61075,-0.1602 8.94158,0 2.33082,0.1637 0.21419,0.2961 -4.70368,0.2942 -4.91786,0 -6.82494,-0.1356 -4.2379,-0.2975 z m 50.77474,0.028 c 1.00592,-0.1938 2.65199,-0.1938 3.65791,0 1.00593,0.1937 0.1829,0.3522 -1.82896,0.3522 -2.01185,0 -2.83488,-0.1585 -1.82895,-0.3522 z m 365.18208,-2.9848 c 0,-0.1687 0.6401,-0.8089 1.4225,-1.4225 1.2893,-1.0111 1.318,-0.9824 0.3069,0.3069 -1.0619,1.354 -1.7294,1.7847 -1.7294,1.1156 z m 17.8831,-22.7604 c 0,-0.1687 0.6402,-0.8089 1.4225,-1.4225 1.2893,-1.011 1.318,-0.9823 0.307,0.307 -1.0619,1.354 -1.7295,1.7846 -1.7295,1.1155 z m -402.57407,-9.173 c 0.55884,-0.2255 1.47332,-0.2255 2.03217,0 0.55885,0.2255 0.10161,0.41 -1.01609,0.41 -1.11769,0 -1.57493,-0.1845 -1.01608,-0.41 z m -97.12258,-8.9665 c 0.79092,-0.2061 1.8883,-0.1926 2.43861,0.03 0.5504,0.2226 -0.0967,0.3912 -1.43797,0.3747 -1.34123,-0.016 -1.79148,-0.1987 -1.00064,-0.4049 z m 134.11932,-0.8329 c 1.23564,-0.1868 3.0646,-0.1818 4.06435,0.011 0.99983,0.1929 -0.0114,0.3458 -2.24653,0.3397 -2.23539,-0.01 -3.05339,-0.1639 -1.81782,-0.3508 z m -154.81216,-3.2234 c 0.58679,-0.2348 1.2879,-0.206 1.55801,0.064 0.27011,0.2701 -0.21,0.4623 -1.0669,0.427 -0.94695,-0.039 -1.13956,-0.2316 -0.49111,-0.4911 z m 152.37785,-0.01 c 0.79093,-0.2061 1.8883,-0.1926 2.43862,0.03 0.55039,0.2227 -0.0967,0.3913 -1.43797,0.3748 -1.34124,-0.016 -1.79149,-0.1988 -1.00065,-0.4049 z m -166.19665,-0.8049 c 0.58679,-0.2348 1.2879,-0.2059 1.55801,0.064 0.27011,0.2701 -0.21,0.4622 -1.06689,0.427 -0.94696,-0.039 -1.13957,-0.2317 -0.49112,-0.4912 z m 186.14734,0 c 0.58681,-0.2348 1.28791,-0.2059 1.55803,0.064 0.27012,0.2701 -0.21005,0.4622 -1.06689,0.427 -0.947,-0.039 -1.13957,-0.2317 -0.49114,-0.4912 z m 375.69855,-15.1958 c 0,-0.1687 0.6402,-0.8088 1.4225,-1.4225 1.2893,-1.011 1.318,-0.9823 0.307,0.307 -1.062,1.354 -1.7295,1.7846 -1.7295,1.1155 z m -645.9028,-19.4051 -1.54851,-1.829 1.82896,1.5485 c 1.71877,1.4552 2.19901,2.1094 1.54851,2.1094 -0.15425,0 -0.97728,-0.823 -1.82896,-1.8289 z m -11.81308,-13.4124 c -1.0111,-1.2893 -0.98235,-1.318 0.30691,-0.3069 1.35404,1.0619 1.78464,1.7294 1.11562,1.7294 -0.1688,0 -0.80893,-0.6401 -1.42253,-1.4225 z m 193.78553,-4.8309 c 0.79092,-0.206 1.88829,-0.1925 2.43861,0.03 0.55039,0.2226 -0.0967,0.3912 -1.43797,0.3747 -1.34124,-0.016 -1.79149,-0.1987 -1.00064,-0.4049 z m -180.7796,-11.4265 c -1.0111,-1.2893 -0.98235,-1.318 0.30691,-0.3069 1.35404,1.0619 1.78464,1.7294 1.11561,1.7294 -0.16879,0 -0.80892,-0.6401 -1.42252,-1.4225 z m 239.74806,-11.3258 c 0.58681,-0.2348 1.28792,-0.206 1.55803,0.064 0.27012,0.2701 -0.21004,0.4623 -1.06689,0.427 -0.94699,-0.039 -1.13956,-0.2316 -0.49114,-0.4911 z m 164.35229,-4.6289 c 0,-0.1687 0.6401,-0.8089 1.4225,-1.4225 1.2893,-1.0111 1.318,-0.9824 0.3069,0.3069 -1.0619,1.354 -1.7294,1.7847 -1.7294,1.1156 z m -459.47507,-10.7987 c 0.55885,-0.2255 1.47333,-0.2255 2.03218,0 0.55885,0.2255 0.10161,0.41 -1.01609,0.41 -1.1177,0 -1.57494,-0.1845 -1.01609,-0.41 z m 21.99831,-0.017 c 0.58678,-0.2348 1.28789,-0.206 1.558,0.064 0.27011,0.2701 -0.20999,0.4623 -1.06689,0.427 -0.94695,-0.039 -1.13956,-0.2316 -0.49111,-0.4911 z m 195.42991,-88.04745 c 0,-1.56477 0.16729,-2.20491 0.37172,-1.42252 0.20452,0.78239 0.20452,2.06266 0,2.84505 -0.20443,0.78239 -0.37172,0.14225 -0.37172,-1.42253 z m 0.0634,-12.59949 c 0.008,-2.68247 0.15632,-3.68181 0.33718,-2.22084 0.18095,1.46105 0.17721,3.6558 -0.008,4.87722 -0.18541,1.2215 -0.33344,0.026 -0.32889,-2.65638 z m -1.74929,-42.6757 c 0,-1.11769 0.18452,-1.57493 0.41001,-1.01608 0.22549,0.55884 0.22549,1.47332 0,2.03217 -0.22549,0.55885 -0.41001,0.10161 -0.41001,-1.01609 z M 692.36242,922.06961 c 0.55885,-0.22549 1.47333,-0.22549 2.03217,0 0.55885,0.22549 0.10161,0.41001 -1.01608,0.41001 -1.1177,0 -1.57494,-0.18452 -1.01609,-0.41001 z m 28.45046,0 c 0.55885,-0.22549 1.47333,-0.22549 2.03218,0 0.55885,0.22549 0.10161,0.41001 -1.01609,0.41001 -1.11769,0 -1.57493,-0.18452 -1.01609,-0.41001 z m 312.19302,-0.0171 c 0.5869,-0.23484 1.288,-0.20598 1.5581,0.0642 0.2701,0.27012 -0.2101,0.46228 -1.0669,0.427 -0.947,-0.039 -1.1396,-0.23167 -0.4912,-0.49114 z m 22.7604,0 c 0.5868,-0.23484 1.2879,-0.20598 1.558,0.0642 0.2702,0.27012 -0.21,0.46228 -1.0668,0.427 -0.947,-0.039 -1.1396,-0.23167 -0.4912,-0.49114 z m 73.1076,-13.80189 c 0.5588,-0.22549 1.4733,-0.22549 2.0321,0 0.5589,0.22549 0.1016,0.41001 -1.0161,0.41001 -1.1177,0 -1.5749,-0.18452 -1.016,-0.41001 z m -909.03055,-62.0525 c 0,-16.76545 0.10809,-23.62404 0.24021,-15.24132 0.13211,8.38273 0.13211,22.09992 0,30.48264 -0.13212,8.38273 -0.24021,1.52414 -0.24021,-15.24132 z m 598.96912,-14.22523 c 0.008,-2.68247 0.15631,-3.68182 0.33717,-2.22084 0.18095,1.46105 0.17721,3.6558 -0.008,4.87722 -0.18542,1.2215 -0.33344,0.026 -0.32889,-2.65638 z m 107.20542,-8.1287 c 0.0163,-1.34124 0.19874,-1.79149 0.40489,-1.00065 0.20606,0.79092 0.19257,1.8883 -0.0301,2.43861 -0.22264,0.5504 -0.39123,-0.0967 -0.37473,-1.43796 z M 817.64396,787.06183 c -1.01104,-1.28926 -0.98235,-1.31802 0.30694,-0.30691 0.78239,0.61359 1.42253,1.25373 1.42253,1.42252 0,0.66903 -0.66753,0.23843 -1.72947,-1.11561 z m 268.19854,-7.26146 c 0.5868,-0.23482 1.2879,-0.20595 1.5581,0.0641 0.2701,0.27011 -0.2101,0.46223 -1.0669,0.42694 -0.947,-0.039 -1.1396,-0.23162 -0.4912,-0.49111 z m 49.5851,0 c 0.5868,-0.23482 1.2879,-0.20595 1.5581,0.0641 0.2701,0.27011 -0.2101,0.46223 -1.0669,0.42694 -0.947,-0.039 -1.1396,-0.23162 -0.4912,-0.49111 z M 660.71127,761.10434 c 0.58679,-0.23481 1.2879,-0.20594 1.55801,0.0641 0.27011,0.27011 -0.21,0.46223 -1.06689,0.42694 -0.94696,-0.039 -1.13957,-0.23162 -0.49112,-0.49111 z m 21.13464,-16.2574 c 0.58678,-0.23482 1.28789,-0.20595 1.558,0.0641 0.27011,0.27011 -0.21,0.46223 -1.06689,0.42694 -0.94696,-0.039 -1.13956,-0.23162 -0.49111,-0.49111 z m 401.50719,-51.25076 c 1.9001,-0.17113 5.0093,-0.17113 6.9094,0 1.9001,0.17115 0.3455,0.31117 -3.4547,0.31117 -3.8002,0 -5.3548,-0.14002 -3.4547,-0.31117 z M 390.17782,370.36202 c 0,-0.16879 0.64014,-0.80892 1.42253,-1.42252 1.28926,-1.0111 1.31801,-0.98235 0.3069,0.30691 -1.06191,1.35404 -1.72943,1.78464 -1.72943,1.11561 z m 13.00593,-17.07028 c 0,-0.16879 0.64014,-0.80892 1.42252,-1.42252 1.28926,-1.0111 1.31802,-0.98235 0.30691,0.30691 -1.06191,1.35404 -1.72943,1.78464 -1.72943,1.11561 z m 2.43861,-3.25148 c 0,-0.16879 0.64014,-0.80893 1.42252,-1.42252 1.28927,-1.01111 1.31802,-0.98235 0.30691,0.30691 -1.06191,1.35404 -1.72943,1.78464 -1.72943,1.11561 z m 17.07028,-21.13463 c 0,-0.16879 0.64014,-0.80893 1.42252,-1.42252 1.28927,-1.01111 1.31802,-0.98236 0.30691,0.3069 -1.06191,1.35404 -1.72943,1.78465 -1.72943,1.11562 z m 4.06435,-4.87722 c 0,-0.16879 0.64014,-0.80893 1.42253,-1.42253 1.28926,-1.0111 1.31801,-0.98235 0.3069,0.30691 -1.06191,1.35404 -1.72943,1.78464 -1.72943,1.11562 z m 21.13464,-24.38612 c 0,-0.16879 0.64013,-0.80892 1.42252,-1.42252 1.28926,-1.0111 1.31801,-0.98235 0.30691,0.30691 -1.06191,1.35404 -1.72943,1.78464 -1.72943,1.11561 z m 5.28365,-6.19605 c 0.80921,-0.89416 1.65418,-1.62574 1.87772,-1.62574 0.22354,0 -0.25564,0.73158 -1.06485,1.62574 -0.8092,0.89416 -1.65417,1.62574 -1.87771,1.62574 -0.22354,0 0.25564,-0.73158 1.06484,-1.62574 z m 9.75445,-10.56732 c 0.8092,-0.89416 1.65417,-1.62574 1.87771,-1.62574 0.22354,0 -0.25564,0.73158 -1.06484,1.62574 -0.8092,0.89416 -1.65418,1.62574 -1.87771,1.62574 -0.22354,0 0.25563,-0.73158 1.06484,-1.62574 z m 3.65792,-3.55839 c 0,-0.16879 0.64013,-0.80893 1.42252,-1.42252 1.28926,-1.01111 1.31801,-0.98235 0.30691,0.30691 -1.06191,1.35404 -1.72943,1.78464 -1.72943,1.11561 z m 43.895,-43.99453 c 1.51664,-1.56478 2.94042,-2.84505 3.16396,-2.84505 0.22354,0 -0.83445,1.28027 -2.35109,2.84505 -1.51664,1.56478 -2.94042,2.84505 -3.16396,2.84505 -0.22354,0 0.83445,-1.28027 2.35109,-2.84505 z m 4.06435,-3.91227 c 0,-0.1399 1.18883,-1.32872 2.64183,-2.64183 l 2.64183,-2.38748 -2.38747,2.64183 c -2.22546,2.46256 -2.89619,3.01547 -2.89619,2.38748 z m 8.94158,-8.28079 c 1.05002,-1.11769 2.09203,-2.03217 2.31557,-2.03217 0.22354,0 -0.45268,0.91448 -1.5027,2.03217 -1.05003,1.1177 -2.09203,2.03218 -2.31557,2.03218 -0.22354,0 0.45267,-0.91448 1.5027,-2.03218 z m 4.87722,-3.96482 c 0,-0.16879 0.64014,-0.80893 1.42252,-1.42253 1.28927,-1.0111 1.31802,-0.98235 0.30691,0.30691 -1.06191,1.35404 -1.72943,1.78464 -1.72943,1.11562 z m 24.79255,-21.6406 c 0.80921,-0.89415 1.65418,-1.62574 1.87772,-1.62574 0.22353,0 -0.25564,0.73159 -1.06485,1.62574 -0.8092,0.89416 -1.65417,1.62574 -1.87771,1.62574 -0.22354,0 0.25564,-0.73158 1.06484,-1.62574 z m 3.65792,-2.74552 c 0,-0.16879 0.64013,-0.80892 1.42252,-1.42252 1.28926,-1.0111 1.31801,-0.98235 0.30691,0.30691 -1.06191,1.35404 -1.72943,1.78464 -1.72943,1.11561 z m 20.72819,-16.76337 c 0.80921,-0.89416 1.65418,-1.62574 1.87772,-1.62574 0.22354,0 -0.25564,0.73158 -1.06484,1.62574 -0.80921,0.89416 -1.65418,1.62574 -1.87772,1.62574 -0.22354,0 0.25564,-0.73158 1.06484,-1.62574 z"
       id="path26" />
    <path
       style="fill:#ffffff;fill-opacity:1;stroke-width:0.81287"
       d="m 1064.8603,1485.6203 c 0,-0.1688 0.6401,-0.8089 1.4225,-1.4226 1.2893,-1.011 1.318,-0.9823 0.307,0.307 -1.062,1.354 -1.7295,1.7846 -1.7295,1.1156 z m 3.2515,-4.0644 c 0,-0.1687 0.6401,-0.8089 1.4225,-1.4225 1.2893,-1.0111 1.318,-0.9824 0.307,0.3069 -1.062,1.354 -1.7295,1.7847 -1.7295,1.1156 z m 21.5411,-26.5178 c 0.8092,-0.8941 1.6541,-1.6257 1.8777,-1.6257 0.2235,0 -0.2557,0.7316 -1.0649,1.6257 -0.8092,0.8942 -1.6542,1.6258 -1.8777,1.6258 -0.2235,0 0.2556,-0.7316 1.0649,-1.6258 z m 55.2751,-64.2167 c 0.8093,-0.8942 1.6542,-1.6258 1.8778,-1.6258 0.2235,0 -0.2557,0.7316 -1.0649,1.6258 -0.8092,0.8941 -1.6542,1.6257 -1.8777,1.6257 -0.2236,0 0.2556,-0.7316 1.0648,-1.6257 z m 39.4243,-44.202 c 0,-0.1687 0.6401,-0.8089 1.4225,-1.4225 1.2893,-1.0111 1.318,-0.9824 0.3069,0.3069 -1.0619,1.354 -1.7294,1.7847 -1.7294,1.1156 z m 31.7019,-35.0529 c 1.05,-1.1177 2.092,-2.0322 2.3156,-2.0322 0.2235,0 -0.4527,0.9145 -1.5027,2.0322 -1.05,1.1177 -2.092,2.0322 -2.3156,2.0322 -0.2235,0 0.4527,-0.9145 1.5027,-2.0322 z m 9.348,-10.1609 c 0.8092,-0.8941 1.6542,-1.6257 1.8778,-1.6257 0.2235,0 -0.2557,0.7316 -1.0649,1.6257 -0.8092,0.8942 -1.6542,1.6258 -1.8777,1.6258 -0.2236,0 0.2556,-0.7316 1.0648,-1.6258 z m 30.0762,-34.1405 c 0.8092,-0.8942 1.6542,-1.6258 1.8778,-1.6258 0.2235,0 -0.2557,0.7316 -1.0649,1.6258 -0.8092,0.8941 -1.6542,1.6257 -1.8777,1.6257 -0.2236,0 0.2556,-0.7316 1.0648,-1.6257 z m 4.8773,-5.6901 c 0.8092,-0.8942 1.6541,-1.6258 1.8777,-1.6258 0.2235,0 -0.2557,0.7316 -1.0649,1.6258 -0.8092,0.8941 -1.6542,1.6257 -1.8777,1.6257 -0.2235,0 0.2556,-0.7316 1.0649,-1.6257 z m -523.18588,-7.1127 c -1.0111,-1.2893 -0.98235,-1.3179 0.30691,-0.3069 1.35404,1.0619 1.78464,1.7295 1.11561,1.7295 -0.16879,0 -0.80892,-0.6402 -1.42252,-1.4226 z m 547.97838,-22.4576 c 0,-0.1688 0.6401,-0.8089 1.4225,-1.4225 1.2893,-1.0111 1.318,-0.9824 0.307,0.3069 -1.062,1.354 -1.7295,1.7847 -1.7295,1.1156 z m -411.9221,-14.907 c 1.22946,-0.1862 3.24132,-0.1862 4.47078,0 1.22947,0.1863 0.22354,0.3386 -2.23539,0.3386 -2.45893,0 -3.46486,-0.1523 -2.23539,-0.3386 z m -15.44454,-34.1406 c 1.22946,-0.1862 3.24132,-0.1862 4.47078,0 1.22947,0.1863 0.22354,0.3387 -2.23539,0.3387 -2.45893,0 -3.46486,-0.1524 -2.23539,-0.3387 z m 23.97968,-0.013 c 1.90008,-0.1711 5.00931,-0.1711 6.90939,0 1.90009,0.1711 0.34547,0.3112 -3.45469,0.3112 -3.80017,0 -5.35479,-0.1401 -3.4547,-0.3112 z m 100.79593,-39.8091 c 1.00593,-0.1938 2.65199,-0.1938 3.65792,0 1.00593,0.1937 0.1829,0.3522 -1.82896,0.3522 -2.01185,0 -2.83488,-0.1585 -1.82896,-0.3522 z m -284.40513,-41.4923 c -1.01111,-1.2893 -0.98236,-1.318 0.30691,-0.3069 1.35404,1.0619 1.78464,1.7294 1.11561,1.7294 -0.16879,0 -0.80893,-0.6401 -1.42252,-1.4225 z m 404.10026,-11.0775 c 0,-0.1687 0.6402,-0.8089 1.4226,-1.4225 1.2893,-1.011 1.318,-0.9824 0.3069,0.3069 -1.0619,1.354 -1.7295,1.7847 -1.7295,1.1156 z m -355.37676,-22.1958 c 0.58679,-0.2348 1.2879,-0.206 1.55801,0.064 0.27011,0.2701 -0.21,0.4623 -1.06689,0.427 -0.94696,-0.039 -1.13957,-0.2317 -0.49112,-0.4911 z m 8.12871,0 c 0.58678,-0.2348 1.28789,-0.206 1.558,0.064 0.27011,0.2701 -0.20999,0.4623 -1.06689,0.427 -0.94695,-0.039 -1.13956,-0.2317 -0.49111,-0.4911 z m 96.19948,-1.8834 c 0,-1.1176 0.18452,-1.5749 0.41001,-1.016 0.22549,0.5588 0.22549,1.4733 0,2.0321 -0.22549,0.5589 -0.41001,0.1016 -0.41001,-1.0161 z m -101.60882,-27.6375 c 0,-1.1177 0.18451,-1.575 0.41001,-1.0161 0.22549,0.5588 0.22549,1.4733 0,2.0321 -0.2255,0.5589 -0.41001,0.1017 -0.41001,-1.016 z m 654.39079,-10.1609 c 0.016,-1.3413 0.1988,-1.7915 0.4049,-1.0007 0.2061,0.791 0.1926,1.8883 -0.03,2.4386 -0.2226,0.5504 -0.3912,-0.097 -0.3747,-1.4379 z m 0.03,-36.98563 c 0,-1.56478 0.1673,-2.20491 0.3717,-1.42253 0.2045,0.78239 0.2045,2.06266 0,2.84505 -0.2044,0.78239 -0.3717,0.14225 -0.3717,-1.42252 z M 862.66049,969.34803 c 0.009,-1.78832 0.1755,-2.42423 0.36993,-1.41301 0.19444,1.01113 0.18705,2.47429 -0.0163,3.25148 -0.20346,0.7771 -0.36254,-0.0504 -0.35352,-1.83847 z M 228.4807,948.95855 c 0.039,-0.94699 0.23161,-1.13956 0.4911,-0.49113 0.23481,0.58681 0.20594,1.28791 -0.0641,1.55803 -0.27011,0.27011 -0.46223,-0.21005 -0.42693,-1.0669 z m 631.60031,-25.19898 c 0.039,-0.94699 0.23166,-1.13956 0.49113,-0.49114 0.23484,0.58682 0.20598,1.28792 -0.0642,1.55803 -0.27011,0.27012 -0.46227,-0.21004 -0.427,-1.06689 z M 223.72796,913.6664 c 0,-1.56477 0.16729,-2.20491 0.37175,-1.42252 0.20446,0.78239 0.20446,2.06266 0,2.84505 -0.20446,0.78238 -0.37175,0.14225 -0.37175,-1.42253 z m 583.51659,-24.04739 c 0.039,-0.94699 0.23162,-1.13956 0.4911,-0.49114 0.23481,0.58682 0.20594,1.28792 -0.0641,1.55803 -0.27011,0.27012 -0.46224,-0.21004 -0.42694,-1.06689 z m 11.47444,-64.14905 c 0.0163,-1.34124 0.19874,-1.79149 0.40489,-1.00065 0.20606,0.79093 0.19257,1.8883 -0.0301,2.43861 -0.22264,0.5504 -0.39123,-0.0967 -0.37473,-1.43796 z m 107.32905,-6.09653 c 0,-1.56478 0.16729,-2.20491 0.37173,-1.42253 0.20452,0.78239 0.20452,2.06266 0,2.84505 -0.20444,0.78239 -0.37173,0.14225 -0.37173,-1.42252 z m 257.84666,-16.46063 -2.3875,-2.64183 2.6418,2.38748 c 2.4626,2.22546 3.0156,2.89618 2.3875,2.89618 -0.1399,0 -1.3287,-1.18882 -2.6418,-2.64183 z M 632.26081,788.74194 c 0.58678,-0.23481 1.28789,-0.20594 1.558,0.0641 0.27011,0.2701 -0.20999,0.46223 -1.06689,0.42693 -0.94695,-0.039 -1.13956,-0.23162 -0.49111,-0.4911 z m -408.51644,-9.6056 c 0.009,-1.78832 0.17549,-2.42418 0.36992,-1.41305 0.19443,1.01114 0.18705,2.47431 -0.0164,3.25149 -0.20345,0.77717 -0.36254,-0.0502 -0.35352,-1.83844 z M 1070.398,749.72416 c 0.5868,-0.23482 1.2879,-0.20594 1.558,0.0641 0.2701,0.27011 -0.21,0.46223 -1.0669,0.42694 -0.947,-0.039 -1.1395,-0.23162 -0.4911,-0.4911 z m -416.18969,-4.87722 c 0.58679,-0.23482 1.2879,-0.20595 1.558,0.0641 0.27011,0.27011 -0.20999,0.46223 -1.06689,0.42694 -0.94695,-0.039 -1.13956,-0.23162 -0.49111,-0.49111 z m -425.66337,-3.50908 c 0,-1.11769 0.18451,-1.57493 0.41001,-1.01608 0.2255,0.55884 0.2255,1.47332 0,2.03217 -0.2255,0.55885 -0.41001,0.10161 -0.41001,-1.01609 z m 847.54316,-29.00574 c 0.5868,-0.23482 1.2879,-0.20594 1.558,0.0641 0.2701,0.27011 -0.21,0.46223 -1.0669,0.42694 -0.947,-0.039 -1.1395,-0.23162 -0.4911,-0.49111 z m -841.91723,-1.54464 c 0.039,-0.94695 0.23162,-1.13956 0.4911,-0.49111 0.23482,0.58679 0.20594,1.2879 -0.0641,1.55801 -0.27011,0.27011 -0.46223,-0.21 -0.42694,-1.0669 z m 962.27073,-61.10076 c -1.011,-1.28926 -0.9824,-1.31801 0.3069,-0.30691 0.7824,0.6136 1.4226,1.25373 1.4226,1.42252 0,0.66903 -0.6676,0.23843 -1.7295,-1.11561 z m -24.3861,-20.32176 c -1.0111,-1.28926 -0.9824,-1.31802 0.3069,-0.30691 0.7824,0.61359 1.4226,1.25373 1.4226,1.42252 0,0.66903 -0.6676,0.23843 -1.7295,-1.11561 z M 415.37681,337.84721 c 0,-0.1688 0.64013,-0.80893 1.42252,-1.42253 1.28926,-1.0111 1.31801,-0.98235 0.30691,0.30691 -1.06191,1.35404 -1.72943,1.78464 -1.72943,1.11562 z m 15.44454,-18.69602 c 0,-0.1688 0.64013,-0.80893 1.42252,-1.42253 1.28926,-1.0111 1.31801,-0.98235 0.30691,0.30691 -1.06191,1.35404 -1.72943,1.78464 -1.72943,1.11562 z m 6.09652,-7.00893 c 0.80921,-0.89416 1.65418,-1.62574 1.87772,-1.62574 0.22354,0 -0.25564,0.73158 -1.06485,1.62574 -0.8092,0.89416 -1.65417,1.62574 -1.87771,1.62574 -0.22354,0 0.25564,-0.73158 1.06484,-1.62574 z m 35.7663,-39.83065 c 0.80921,-0.89416 1.65418,-1.62575 1.87772,-1.62575 0.22354,0 -0.25564,0.73159 -1.06484,1.62575 -0.80921,0.89415 -1.65418,1.62574 -1.87772,1.62574 -0.22354,0 0.25564,-0.73159 1.06484,-1.62574 z m 4.87723,-4.87723 c 0.8092,-0.89415 1.65417,-1.62574 1.87771,-1.62574 0.22354,0 -0.25564,0.73159 -1.06484,1.62574 -0.80921,0.89416 -1.65418,1.62574 -1.87772,1.62574 -0.22354,0 0.25564,-0.73158 1.06485,-1.62574 z m 4.87722,-4.87722 c 0.8092,-0.89416 1.65418,-1.62574 1.87771,-1.62574 0.22354,0 -0.25563,0.73158 -1.06484,1.62574 -0.8092,0.89416 -1.65417,1.62574 -1.87771,1.62574 -0.22354,0 0.25564,-0.73158 1.06484,-1.62574 z m 4.87722,-4.87722 c 0.80921,-0.89416 1.65418,-1.62574 1.87772,-1.62574 0.22354,0 -0.25564,0.73158 -1.06485,1.62574 -0.8092,0.89415 -1.65417,1.62574 -1.87771,1.62574 -0.22354,0 0.25564,-0.73159 1.06484,-1.62574 z m 4.87723,-4.87723 c 0.8092,-0.89415 1.65417,-1.62574 1.87771,-1.62574 0.22354,0 -0.25564,0.73159 -1.06484,1.62574 -0.80921,0.89416 -1.65418,1.62575 -1.87772,1.62575 -0.22354,0 0.25564,-0.73159 1.06485,-1.62575 z m 4.87722,-4.87722 c 0.8092,-0.89416 1.65417,-1.62574 1.87771,-1.62574 0.22354,0 -0.25564,0.73158 -1.06484,1.62574 -0.80921,0.89416 -1.65418,1.62574 -1.87772,1.62574 -0.22353,0 0.25564,-0.73158 1.06485,-1.62574 z m 4.47079,-4.37126 c 0,-0.16879 0.64013,-0.80893 1.42252,-1.42252 1.28926,-1.01111 1.31801,-0.98236 0.30691,0.30691 -1.06191,1.35403 -1.72943,1.78464 -1.72943,1.11561 z m 39.83065,-35.7663 c 0,-0.16879 0.64013,-0.80893 1.42252,-1.42252 1.28926,-1.01111 1.31801,-0.98236 0.30691,0.30691 -1.06191,1.35403 -1.72943,1.78464 -1.72943,1.11561 z"
       id="path24" />
    <path
       style="fill:#ffffff;fill-opacity:1;stroke-width:0.81287"
       d="m 633.1224,1496.6977 c -1.0111,-1.2893 -0.98235,-1.3179 0.30691,-0.3069 1.35404,1.0619 1.78464,1.7295 1.11562,1.7295 -0.1688,0 -0.80893,-0.6402 -1.42253,-1.4226 z m -100.36304,-28.044 -1.54851,-1.8289 1.82896,1.5485 c 1.71876,1.4552 2.19901,2.1094 1.54851,2.1094 -0.15425,0 -0.97728,-0.8231 -1.82896,-1.829 z m 74.35119,-7.7223 c -1.01111,-1.2893 -0.98236,-1.3179 0.3069,-0.3069 1.35404,1.0619 1.78465,1.7295 1.11562,1.7295 -0.16879,0 -0.80893,-0.6402 -1.42252,-1.4226 z m -87.79001,-9.7544 c -1.01111,-1.2893 -0.98236,-1.318 0.3069,-0.3069 1.35404,1.0619 1.78465,1.7294 1.11562,1.7294 -0.16879,0 -0.80893,-0.6401 -1.42252,-1.4225 z m 62.59102,-23.5732 c -1.0111,-1.2893 -0.98235,-1.318 0.30691,-0.307 1.35404,1.0619 1.78464,1.7295 1.11562,1.7295 -0.1688,0 -0.80893,-0.6402 -1.42253,-1.4225 z m -118.67909,-47.1465 c -1.0111,-1.2893 -0.98235,-1.318 0.30691,-0.307 1.35404,1.062 1.78464,1.7295 1.11562,1.7295 -0.16879,0 -0.80893,-0.6401 -1.42253,-1.4225 z m -19.50889,-24.3861 c -1.0111,-1.2893 -0.98235,-1.318 0.30691,-0.307 1.35404,1.0619 1.78464,1.7295 1.11562,1.7295 -0.1688,0 -0.80893,-0.6402 -1.42253,-1.4225 z m 47.14649,-43.0822 c -1.0111,-1.2893 -0.98235,-1.318 0.30691,-0.3069 1.35404,1.0619 1.78464,1.7294 1.11561,1.7294 -0.16879,0 -0.80892,-0.6401 -1.42252,-1.4225 z m -24.38611,-30.8891 c -1.01111,-1.2893 -0.98236,-1.3179 0.3069,-0.3069 1.35404,1.0619 1.78464,1.7295 1.11562,1.7295 -0.16879,0 -0.80893,-0.6402 -1.42252,-1.4226 z m -89.41575,-10.5673 c -1.01111,-1.2893 -0.98236,-1.318 0.3069,-0.3069 0.78239,0.6136 1.42253,1.2538 1.42253,1.4225 0,0.6691 -0.66752,0.2384 -1.72943,-1.1156 z m 74.78408,-8.1287 c -1.01111,-1.2893 -0.98236,-1.318 0.30691,-0.3069 1.35403,1.0619 1.78464,1.7294 1.11561,1.7294 -0.16879,0 -0.80893,-0.6401 -1.42252,-1.4225 z m 287.75614,-6.5029 c -1.0111,-1.2893 -0.98235,-1.318 0.30691,-0.307 1.35404,1.0619 1.78464,1.7295 1.11562,1.7295 -0.1688,0 -0.80893,-0.6402 -1.42253,-1.4225 z m -15.44454,-16.2575 c -1.0111,-1.2892 -0.98235,-1.3179 0.30691,-0.3069 1.35404,1.0619 1.78464,1.7295 1.11562,1.7295 -0.1688,0 -0.80893,-0.6402 -1.42253,-1.4226 z m 173.86427,-17.0355 c 1.01113,-0.1945 2.47429,-0.1871 3.25148,0.016 0.7771,0.2035 -0.0504,0.3626 -1.83847,0.3536 -1.78832,-0.01 -2.42423,-0.1755 -1.41301,-0.37 z m -34.15007,-6.5017 c 1.00592,-0.1938 2.65199,-0.1938 3.65791,0 1.00593,0.1937 0.1829,0.3522 -1.82896,0.3522 -2.01185,0 -2.83488,-0.1585 -1.82895,-0.3522 z m -9.70365,-34.1222 c 0.58682,-0.2348 1.28792,-0.206 1.55803,0.064 0.27012,0.2702 -0.21004,0.4623 -1.06689,0.427 -0.94699,-0.039 -1.13956,-0.2316 -0.49114,-0.4911 z m 38.56055,-0.01 c 0.78239,-0.2045 2.06266,-0.2045 2.84504,0 0.78239,0.2044 0.14226,0.3717 -1.42252,0.3717 -1.56478,0 -2.20491,-0.1673 -1.42252,-0.3717 z m -79.25487,-9.7325 c 0.55885,-0.2255 1.47332,-0.2255 2.03217,0 0.55885,0.2255 0.10161,0.41 -1.01608,0.41 -1.1177,0 -1.57494,-0.1845 -1.01609,-0.41 z m 130.11008,-0.8298 c 0.58681,-0.2348 1.28791,-0.206 1.55802,0.064 0.27012,0.2702 -0.21004,0.4623 -1.06689,0.427 -0.94699,-0.039 -1.13956,-0.2316 -0.49113,-0.4911 z m -149.61897,-3.2315 c 0.55884,-0.2255 1.47332,-0.2255 2.03217,0 0.55885,0.2255 0.10161,0.41 -1.01609,0.41 -1.11769,0 -1.57493,-0.1845 -1.01608,-0.41 z m 24.43691,-0.017 c 0.58682,-0.2349 1.28792,-0.206 1.55803,0.064 0.27012,0.2701 -0.21004,0.4623 -1.06689,0.427 -0.94699,-0.039 -1.13956,-0.2317 -0.49114,-0.4912 z m 126.366,-0.01 c 0.79092,-0.206 1.8883,-0.1925 2.43861,0.03 0.5504,0.2227 -0.0967,0.3912 -1.43796,0.3747 -1.34124,-0.016 -1.79149,-0.1987 -1.00065,-0.4048 z m 10.56732,0 c 0.79092,-0.206 1.8883,-0.1925 2.43861,0.03 0.55039,0.2227 -0.0967,0.3912 -1.43797,0.3747 -1.34124,-0.016 -1.79148,-0.1987 -1.00064,-0.4048 z m -303.62257,-91.89 c 2.34717,-0.1642 6.18798,-0.1642 8.53514,0 2.34717,0.1642 0.42676,0.2985 -4.26757,0.2985 -4.69432,0 -6.61473,-0.1343 -4.26757,-0.2985 z m 210.86502,-83.93929 c 0,-1.1177 0.18453,-1.57494 0.41002,-1.01609 0.22549,0.55885 0.22549,1.47333 0,2.03218 -0.22549,0.55884 -0.41002,0.1016 -0.41002,-1.01609 z m 540.49469,-8.60285 c 0.039,-0.947 0.2316,-1.13957 0.4911,-0.49114 0.2348,0.58681 0.206,1.28791 -0.064,1.55803 -0.2701,0.27011 -0.4623,-0.21005 -0.427,-1.06689 z m -0.8129,-6.50297 c 0.039,-0.94699 0.2317,-1.13956 0.4911,-0.49113 0.2349,0.58681 0.206,1.28791 -0.064,1.55802 -0.2701,0.27012 -0.4623,-0.21004 -0.427,-1.06689 z M 226.85504,939.20411 c 0.039,-0.94699 0.23161,-1.13956 0.4911,-0.49114 0.23481,0.58681 0.20594,1.28791 -0.0641,1.55803 -0.2701,0.27012 -0.46223,-0.21004 -0.42693,-1.06689 z M 1489.5312,908.38274 c -6e-4,-11.17697 0.1139,-15.86211 0.2543,-10.4114 0.1405,5.4507 0.1409,14.59549 0,20.32176 -0.1399,5.72626 -0.2548,1.26661 -0.2552,-9.91036 z M 222.9315,905.94413 c 0.009,-1.78831 0.17549,-2.42422 0.36992,-1.41301 0.19443,1.01113 0.18705,2.4743 -0.0164,3.25148 -0.20346,0.77711 -0.36254,-0.0504 -0.35352,-1.83847 z m -0.79647,-9.34801 c 0,-2.01185 0.15853,-2.83488 0.35227,-1.82896 0.19376,1.00593 0.19376,2.65199 0,3.65792 -0.19374,1.00593 -0.35227,0.1829 -0.35227,-1.82896 z m 433.25725,-9.50489 c 0.7909,-0.20607 1.88827,-0.19257 2.43861,0.0301 0.55034,0.22265 -0.0967,0.39124 -1.43799,0.37474 -1.34124,-0.0163 -1.79152,-0.19875 -1.00062,-0.40489 z m 502.13522,-2.9951 c 0,-0.16876 0.6402,-0.80889 1.4226,-1.42253 1.2893,-1.01105 1.318,-0.98235 0.3069,0.30694 -1.0619,1.354 -1.7295,1.78466 -1.7295,1.11559 z M 946.99409,850.76844 c 0,-0.16876 0.64014,-0.80889 1.42252,-1.42253 1.2893,-1.01105 1.31799,-0.98235 0.30694,0.30694 -1.06193,1.354 -1.72946,1.78466 -1.72946,1.11559 z m -128.3694,-28.61768 c 0.039,-0.94699 0.23167,-1.13956 0.49114,-0.49113 0.23484,0.58681 0.20598,1.28791 -0.0642,1.55802 -0.27011,0.27012 -0.46228,-0.21004 -0.427,-1.06689 z M 222.15722,796.61305 c 0,-2.45893 0.15239,-3.46486 0.33864,-2.23539 0.18625,1.22947 0.18625,3.24132 0,4.47079 -0.18625,1.22947 -0.33864,0.22354 -0.33864,-2.2354 z m 0.75787,-10.56731 c 0,-1.56478 0.16729,-2.20491 0.37175,-1.42252 0.20446,0.78238 0.20446,2.06265 0,2.84504 -0.20446,0.78239 -0.37175,0.14225 -0.37175,-1.42252 z m 1016.60861,0.20322 c -1.011,-1.28926 -0.9823,-1.31802 0.307,-0.30691 0.7824,0.61359 1.4225,1.25373 1.4225,1.42252 0,0.66903 -0.6675,0.23843 -1.7295,-1.11561 z M 226.85504,751.43101 c 0.039,-0.94696 0.23161,-1.13957 0.4911,-0.49111 0.23481,0.58678 0.20594,1.28789 -0.0641,1.558 -0.2701,0.27011 -0.46223,-0.21 -0.42693,-1.06689 z m 982.59246,-0.13548 c -1.011,-1.28926 -0.9823,-1.31802 0.307,-0.30691 0.7824,0.61359 1.4225,1.25373 1.4225,1.42252 0,0.66903 -0.6675,0.23843 -1.7295,-1.11561 z m -4.8772,-4.87723 c -1.011,-1.28926 -0.9823,-1.31801 0.3069,-0.3069 0.7824,0.61359 1.4226,1.25373 1.4226,1.42252 0,0.66902 -0.6676,0.23842 -1.7295,-1.11562 z m 82.1421,-3.25148 -1.9706,-2.23539 2.2354,1.97065 c 1.2294,1.08386 2.2354,2.08979 2.2354,2.23539 0,0.63752 -0.6583,0.11866 -2.5002,-1.97065 z m -86.5864,-2.03217 -1.5485,-1.82896 1.829,1.54851 c 1.7187,1.45521 2.1989,2.1094 1.5485,2.1094 -0.1543,0 -0.9773,-0.82303 -1.829,-1.82895 z m 61.3874,-27.23116 -1.9706,-2.2354 2.2354,1.97065 c 1.2294,1.08387 2.2354,2.08979 2.2354,2.2354 0,0.63751 -0.6583,0.11866 -2.5002,-1.97065 z m -4.1065,-4.87723 c -1.0111,-1.28926 -0.9824,-1.31801 0.3069,-0.30691 0.7824,0.6136 1.4225,1.25374 1.4225,1.42253 0,0.66902 -0.6675,0.23842 -1.7294,-1.11562 z m -4.8772,-4.87722 c -1.0111,-1.28926 -0.9824,-1.31801 0.3069,-0.30691 0.7824,0.6136 1.4225,1.25373 1.4225,1.42253 0,0.66902 -0.6675,0.23842 -1.7294,-1.11562 z m -123.9363,-28.04403 -1.5485,-1.82896 1.829,1.54851 c 1.7187,1.45522 2.1989,2.10941 1.5485,2.10941 -0.1543,0 -0.9773,-0.82303 -1.829,-1.82896 z m -25.6319,-19.91533 c -1.0111,-1.28926 -0.9824,-1.31801 0.3069,-0.30691 0.7824,0.6136 1.4226,1.25374 1.4226,1.42253 0,0.66902 -0.6676,0.23842 -1.7295,-1.11562 z m 99.1702,-1.62574 c -1.0111,-1.28926 -0.9824,-1.31801 0.3069,-0.30691 0.7824,0.6136 1.4226,1.25373 1.4226,1.42253 0,0.66902 -0.6676,0.23842 -1.7295,-1.11562 z m -10.9212,-9.34801 -2.3874,-2.64183 2.6418,2.38748 c 2.4626,2.22546 3.0155,2.89618 2.3875,2.89618 -0.1399,0 -1.3288,-1.18882 -2.6419,-2.64183 z m -5.6901,-4.87722 -2.3874,-2.64183 2.6418,2.38747 c 2.4626,2.22546 3.0155,2.89619 2.3875,2.89619 -0.1399,0 -1.3287,-1.18883 -2.6419,-2.64183 z m -18.7221,-15.44454 -1.5485,-1.82896 1.829,1.54851 c 1.7187,1.45522 2.1989,2.10941 1.5485,2.10941 -0.1543,0 -0.9773,-0.82303 -1.829,-1.82896 z m -7.7487,-6.09653 c -1.0111,-1.28926 -0.9824,-1.31801 0.3069,-0.30691 0.7824,0.6136 1.4225,1.25373 1.4225,1.42253 0,0.66902 -0.6675,0.23842 -1.7294,-1.11562 z m -17.0703,-13.00593 c -1.0111,-1.28926 -0.9824,-1.31801 0.3069,-0.3069 0.7824,0.61359 1.4225,1.25373 1.4225,1.42252 0,0.66902 -0.6675,0.23842 -1.7294,-1.11562 z M 1300.489,398.50975 c -1.011,-1.28927 -0.9823,-1.31802 0.307,-0.30691 1.354,1.06191 1.7846,1.72943 1.1155,1.72943 -0.1687,0 -0.8088,-0.64014 -1.4225,-1.42252 z m -10.5673,-14.63167 c -1.011,-1.28926 -0.9823,-1.31802 0.3069,-0.30691 1.354,1.06191 1.7847,1.72943 1.1156,1.72943 -0.1687,0 -0.8089,-0.64014 -1.4225,-1.42252 z m -15.4445,-20.32176 c -1.0111,-1.28927 -0.9824,-1.31802 0.3069,-0.30691 1.354,1.06191 1.7847,1.72943 1.1156,1.72943 -0.1688,0 -0.8089,-0.64014 -1.4225,-1.42252 z m -24.3861,-30.88908 c -1.0111,-1.28926 -0.9824,-1.31802 0.3069,-0.30691 1.354,1.06191 1.7846,1.72943 1.1156,1.72943 -0.1688,0 -0.8089,-0.64013 -1.4225,-1.42252 z m -95.9188,-103.23455 c -1.011,-1.28926 -0.9823,-1.31801 0.307,-0.30691 1.354,1.06191 1.7846,1.72943 1.1156,1.72943 -0.1688,0 -0.8089,-0.64013 -1.4226,-1.42252 z M 814.29299,65.304159 c 0.55885,-0.2255 1.47333,-0.2255 2.03217,0 0.55885,0.225501 0.10161,0.41 -1.01608,0.41 -1.1177,0 -1.57494,-0.184499 -1.01609,-0.41 z m 6.92484,-0.837834 c 0.79092,-0.206097 1.8883,-0.192544 2.43861,0.03012 0.5504,0.222664 -0.0967,0.39129 -1.43797,0.374724 -1.34123,-0.01657 -1.79148,-0.198746 -1.00064,-0.404844 z m 49.16322,0.02496 c 0.55885,-0.2255 1.47333,-0.2255 2.03218,0 0.55884,0.225501 0.1016,0.410001 -1.01609,0.410001 -1.1177,0 -1.57494,-0.1845 -1.01609,-0.410001 z m -40.23709,-0.856743 c 1.22947,-0.186249 3.24132,-0.186249 4.47079,0 1.22947,0.186248 0.22354,0.338634 -2.23539,0.338634 -2.45894,0 -3.46487,-0.152386 -2.2354,-0.338634 z m 32.1179,0.0073 c 1.01112,-0.194433 2.47429,-0.187051 3.25148,0.0164 0.7771,0.203454 -0.0504,0.362536 -1.83847,0.353514 -1.78832,-0.009 -2.42423,-0.175486 -1.41301,-0.369918 z"
       id="path22" />
    <path
       style="fill:#ffffff;fill-opacity:1;stroke-width:0.81287"
       d="m 592.47888,1441.4226 c -1.01111,-1.2893 -0.98236,-1.318 0.30691,-0.307 1.35403,1.0619 1.78464,1.7295 1.11561,1.7295 -0.16879,0 -0.80893,-0.6402 -1.42252,-1.4225 z m -2.43861,-3.2515 c -1.01111,-1.2893 -0.98236,-1.318 0.3069,-0.307 0.78239,0.6137 1.42253,1.2538 1.42253,1.4226 0,0.669 -0.66752,0.2384 -1.72943,-1.1156 z m -85.3514,-5.6901 c -1.01111,-1.2893 -0.98236,-1.318 0.30691,-0.307 0.78238,0.6137 1.42252,1.2538 1.42252,1.4226 0,0.669 -0.66752,0.2384 -1.72943,-1.1156 z m 72.34547,-11.3802 c -1.01111,-1.2893 -0.98235,-1.318 0.30691,-0.307 1.35404,1.062 1.78464,1.7295 1.11561,1.7295 -0.16879,0 -0.80892,-0.6401 -1.42252,-1.4225 z m -84.53853,-4.0644 c -1.0111,-1.2893 -0.98235,-1.318 0.30691,-0.3069 1.35404,1.0619 1.78464,1.7295 1.11561,1.7295 -0.16879,0 -0.80892,-0.6402 -1.42252,-1.4226 z m 81.28705,0 c -1.01111,-1.2893 -0.98236,-1.318 0.30691,-0.3069 0.78238,0.6136 1.42252,1.2538 1.42252,1.4225 0,0.6691 -0.66752,0.2384 -1.72943,-1.1156 z m -17.45026,-22.3539 -1.54851,-1.829 1.82896,1.5486 c 1.71877,1.4552 2.19901,2.1094 1.54851,2.1094 -0.15425,0 -0.97728,-0.8231 -1.82896,-1.829 z m -35.38632,-44.3014 c -1.01111,-1.2893 -0.98236,-1.318 0.30691,-0.307 1.35403,1.062 1.78464,1.7295 1.11561,1.7295 -0.16879,0 -0.80893,-0.6402 -1.42252,-1.4225 z m -2.81859,-3.658 -1.54851,-1.8289 1.82896,1.5485 c 1.71876,1.4552 2.19901,2.1094 1.54851,2.1094 -0.15425,0 -0.97728,-0.823 -1.82896,-1.829 z m -16.6903,-20.7282 c -1.01111,-1.2892 -0.98236,-1.3179 0.3069,-0.3069 1.35404,1.0619 1.78464,1.7295 1.11562,1.7295 -0.16879,0 -0.80893,-0.6402 -1.42252,-1.4226 z m -3.25149,-4.0643 c -1.0111,-1.2893 -0.98235,-1.318 0.30691,-0.3069 1.35404,1.0619 1.78464,1.7294 1.11562,1.7294 -0.16879,0 -0.80893,-0.6401 -1.42253,-1.4225 z m -19.50889,-24.3861 c -1.0111,-1.2893 -0.98235,-1.318 0.30691,-0.307 0.78239,0.6137 1.42252,1.2538 1.42252,1.4226 0,0.669 -0.66752,0.2384 -1.72943,-1.1156 z m -82.09991,-0.8129 c -1.01111,-1.2893 -0.98236,-1.318 0.3069,-0.3069 0.78239,0.6136 1.42253,1.2537 1.42253,1.4225 0,0.6691 -0.66752,0.2384 -1.72943,-1.1156 z m 67.46825,-17.8831 c -1.01111,-1.2893 -0.98236,-1.318 0.3069,-0.307 1.35404,1.062 1.78464,1.7295 1.11562,1.7295 -0.16879,0 -0.80893,-0.6402 -1.42252,-1.4225 z m -20.32177,-26.0119 c -1.0111,-1.2893 -0.98235,-1.318 0.30691,-0.3069 1.35404,1.0619 1.78464,1.7294 1.11562,1.7294 -0.1688,0 -0.80893,-0.6401 -1.42253,-1.4225 z m 304.01356,-14.6317 c -1.01111,-1.2893 -0.98236,-1.318 0.3069,-0.3069 1.35404,1.0619 1.78465,1.7295 1.11562,1.7295 -0.16879,0 -0.80893,-0.6402 -1.42252,-1.4226 z m -4.87723,-4.8772 c -1.0111,-1.2893 -0.98235,-1.318 0.30691,-0.3069 1.35404,1.0619 1.78464,1.7294 1.11562,1.7294 -0.16879,0 -0.80893,-0.6401 -1.42253,-1.4225 z m -10.13442,-10.1609 -1.54851,-1.8289 1.82896,1.5485 c 1.71877,1.4552 2.19901,2.1094 1.54851,2.1094 -0.15425,0 -0.97728,-0.823 -1.82896,-1.829 z m 170.22118,0.4608 c 0.58681,-0.2348 1.28791,-0.2059 1.55803,0.064 0.27012,0.2701 -0.21004,0.4622 -1.06689,0.427 -0.947,-0.039 -1.13956,-0.2317 -0.49114,-0.4912 z m -169.02833,-13.8731 c -1.01111,-1.2893 -0.98235,-1.318 0.30691,-0.307 1.35404,1.062 1.78464,1.7295 1.11561,1.7295 -0.16879,0 -0.80893,-0.6401 -1.42252,-1.4225 z M 396.5771,1187.807 c -1.01111,-1.2893 -0.98236,-1.318 0.3069,-0.307 0.78239,0.6137 1.42253,1.2538 1.42253,1.4225 0,0.6691 -0.66752,0.2385 -1.72943,-1.1155 z m 414.51521,-14.5773 c 0.58679,-0.2349 1.2879,-0.206 1.558,0.064 0.27015,0.2701 -0.20999,0.4623 -1.06689,0.427 -0.94695,-0.039 -1.13956,-0.2317 -0.49111,-0.4911 z m 148.3135,-4.0724 c 0.79092,-0.2061 1.8883,-0.1926 2.43861,0.03 0.5504,0.2226 -0.0967,0.3912 -1.43797,0.3747 -1.34123,-0.016 -1.79148,-0.1988 -1.00064,-0.4049 z m -285.63988,-64.2631 c -1.01111,-1.2893 -0.98236,-1.318 0.3069,-0.307 1.35404,1.062 1.78464,1.7295 1.11562,1.7295 -0.16879,0 -0.80893,-0.6401 -1.42252,-1.4225 z m 75.91932,-36.5329 c 0.7909,-0.206 1.88828,-0.1925 2.43862,0.03 0.55033,0.2227 -0.0968,0.3913 -1.438,0.3748 -1.34123,-0.016 -1.79151,-0.1988 -1.00062,-0.4049 z m -0.15451,-34.0513 c 0.039,-0.947 0.23162,-1.1396 0.49111,-0.4912 0.23481,0.5868 0.20594,1.2879 -0.0641,1.558 -0.27011,0.2702 -0.46223,-0.21 -0.42693,-1.0668 z m 655.43846,-23.5056 c 0,-7.1532 0.1254,-9.9707 0.2764,-6.2611 0.1509,3.7096 0.15,9.5623 0,13.0059 -0.152,3.4437 -0.2756,0.4085 -0.2745,-6.7448 z m -543.26237,-0.8806 c 0.039,-0.947 0.23167,-1.1395 0.49113,-0.4911 0.23484,0.5868 0.20599,1.2879 -0.0642,1.558 -0.27012,0.2701 -0.46228,-0.21 -0.427,-1.0669 z m 0.90716,-45.45299 c 0.0163,-1.34124 0.19875,-1.79149 0.40489,-1.00065 0.20606,0.79093 0.19257,1.8883 -0.0301,2.43861 -0.22265,0.5504 -0.39124,-0.0967 -0.37474,-1.43796 z m -77.31695,-25.2667 c 0.039,-0.94699 0.23162,-1.13956 0.49111,-0.49114 0.23481,0.58681 0.20594,1.28791 -0.0641,1.55803 -0.27011,0.27012 -0.46223,-0.21004 -0.42693,-1.06689 z M 225.29346,927.4852 c 0,-1.1177 0.18451,-1.57494 0.41001,-1.01609 0.22549,0.55885 0.22549,1.47333 0,2.03218 -0.2255,0.55885 -0.41001,0.10161 -0.41001,-1.01609 z m -0.87704,-6.16424 c 0.039,-0.947 0.23162,-1.13956 0.49111,-0.49114 0.23481,0.58681 0.20594,1.28791 -0.0641,1.55803 -0.27011,0.27012 -0.46223,-0.21004 -0.42693,-1.06689 z m 555.83554,-25.33449 c -1.01111,-1.28929 -0.98236,-1.31799 0.3069,-0.30694 0.78239,0.61364 1.42253,1.25377 1.42253,1.42252 0,0.66908 -0.66752,0.23842 -1.72943,-1.11558 z M 221.36094,885.21594 c 0,-2.90602 0.14754,-4.09484 0.32786,-2.64183 0.18031,1.453 0.18031,3.83065 0,5.28365 -0.18032,1.45301 -0.32786,0.26419 -0.32786,-2.64182 z m 811.20326,2.68816 c 0.7909,-0.20606 1.8882,-0.19257 2.4386,0.0301 0.5504,0.22265 -0.097,0.39124 -1.438,0.37474 -1.3412,-0.0163 -1.7915,-0.19875 -1.0006,-0.40489 z M 818.71899,818.96699 c 0.0163,-1.34123 0.19874,-1.79148 0.40489,-1.00064 0.20606,0.79092 0.19257,1.8883 -0.0301,2.43861 -0.22264,0.5504 -0.39123,-0.0967 -0.37473,-1.43797 z m 441.93941,-5.08044 c -1.0111,-1.28926 -0.9824,-1.31801 0.3069,-0.30694 0.7824,0.61364 1.4225,1.25377 1.4225,1.42253 0,0.66907 -0.6675,0.23841 -1.7294,-1.11559 z M 221.34435,807.99324 c 0,-2.45893 0.15239,-3.46486 0.33863,-2.23539 0.18626,1.22946 0.18626,3.24132 0,4.47079 -0.18624,1.22946 -0.33863,0.22353 -0.33863,-2.2354 z m 389.18554,-8.60288 c 0.039,-0.94695 0.23162,-1.13956 0.49111,-0.49111 0.23481,0.58679 0.20594,1.2879 -0.0641,1.55801 -0.27011,0.27011 -0.46223,-0.21 -0.42693,-1.0669 z m 637.93541,-1.76122 c -1.011,-1.28926 -0.9823,-1.31801 0.307,-0.3069 0.7823,0.61359 1.4225,1.25373 1.4225,1.42252 0,0.66902 -0.6676,0.23842 -1.7295,-1.11562 z m -2.4386,-3.25148 c -1.011,-1.28926 -0.9824,-1.31801 0.3069,-0.30691 0.7824,0.6136 1.4226,1.25373 1.4226,1.42253 0,0.66902 -0.6676,0.23842 -1.7295,-1.11562 z m -602.38571,-6.44859 c 0.58679,-0.23481 1.2879,-0.20594 1.55801,0.0641 0.27011,0.2701 -0.21,0.46223 -1.06689,0.42693 -0.94696,-0.039 -1.13957,-0.23162 -0.49112,-0.4911 z m 584.54471,-15.49891 -1.9706,-2.2354 2.2354,1.97065 c 1.2295,1.08387 2.2354,2.0898 2.2354,2.2354 0,0.63752 -0.6583,0.11866 -2.5002,-1.97065 z M 224.48059,769.78833 c 0,-1.1177 0.18451,-1.57494 0.41001,-1.01609 0.22549,0.55885 0.22549,1.47333 0,2.03218 -0.2255,0.55885 -0.41001,0.10161 -0.41001,-1.01609 z m 997.16001,-4.67401 c -1.0111,-1.28926 -0.9824,-1.31801 0.3069,-0.3069 0.7824,0.61359 1.4225,1.25373 1.4225,1.42252 0,0.66903 -0.6675,0.23842 -1.7294,-1.11562 z m -996.41131,-1.49026 c 0.039,-0.94695 0.23162,-1.13956 0.49111,-0.49111 0.23481,0.58679 0.20594,1.2879 -0.0641,1.55801 -0.27011,0.27011 -0.46223,-0.21 -0.42693,-1.0669 z M 1293.1732,751.29553 c -1.0111,-1.28926 -0.9824,-1.31802 0.3069,-0.30691 0.7824,0.61359 1.4225,1.25373 1.4225,1.42252 0,0.66903 -0.6675,0.23843 -1.7294,-1.11561 z m -636.52628,-6.44859 c 0.58679,-0.23482 1.2879,-0.20595 1.55801,0.0641 0.2701,0.27011 -0.21,0.46223 -1.0669,0.42694 -0.94695,-0.039 -1.13956,-0.23162 -0.49111,-0.49111 z m 533.29168,-13.87318 c -1.011,-1.28926 -0.9823,-1.31801 0.307,-0.3069 0.7824,0.61359 1.4225,1.25373 1.4225,1.42252 0,0.66903 -0.6675,0.23842 -1.7295,-1.11562 z m 85.7844,-1.2193 -1.5485,-1.82896 1.8289,1.54851 c 1.7187,1.45522 2.199,2.10941 1.5485,2.10941 -0.1543,0 -0.9773,-0.82303 -1.8289,-1.82896 z m -91.0415,-4.06435 -1.5485,-1.82896 1.8289,1.54851 c 1.7188,1.45522 2.199,2.10941 1.5485,2.10941 -0.1542,0 -0.9773,-0.82304 -1.8289,-1.82896 z m -106.1548,-13.35799 c 0.5868,-0.23482 1.2879,-0.20594 1.558,0.0641 0.2701,0.27011 -0.21,0.46223 -1.0669,0.42694 -0.947,-0.039 -1.1395,-0.23162 -0.4911,-0.49111 z m 16.2574,0 c 0.5868,-0.23482 1.2879,-0.20594 1.558,0.0641 0.2701,0.27011 -0.21,0.46223 -1.0669,0.42694 -0.947,-0.039 -1.1395,-0.23162 -0.4911,-0.49111 z m 74.8328,-0.86725 c -1.0111,-1.28926 -0.9824,-1.31801 0.3069,-0.3069 0.7824,0.61359 1.4225,1.25373 1.4225,1.42252 0,0.66902 -0.6675,0.23842 -1.7294,-1.11562 z m 10.5673,-75.59695 c -1.0111,-1.28926 -0.9824,-1.31801 0.3069,-0.30691 0.7824,0.6136 1.4226,1.25373 1.4226,1.42253 0,0.66902 -0.6676,0.23842 -1.7295,-1.11562 z m -4.8772,-4.06435 c -1.0111,-1.28926 -0.9824,-1.31801 0.3069,-0.30691 0.7824,0.6136 1.4225,1.25373 1.4225,1.42252 0,0.66903 -0.6675,0.23843 -1.7294,-1.11561 z m -19.8889,-15.85098 -1.5485,-1.82895 1.829,1.54851 c 1.7187,1.45521 2.199,2.1094 1.5485,2.1094 -0.1543,0 -0.9773,-0.82303 -1.829,-1.82896 z m 150.761,-209.31414 c -1.011,-1.28926 -0.9823,-1.31801 0.307,-0.30691 0.7823,0.6136 1.4225,1.25373 1.4225,1.42253 0,0.66902 -0.6676,0.23842 -1.7295,-1.11562 z m -26.0118,-35.7663 c -1.0111,-1.28926 -0.9824,-1.31801 0.3069,-0.30691 1.354,1.06191 1.7847,1.72943 1.1156,1.72943 -0.1688,0 -0.8089,-0.64013 -1.4225,-1.42252 z m -34.0984,-43.08214 -1.9707,-2.23539 2.2354,1.97065 c 1.2295,1.08387 2.2354,2.08979 2.2354,2.23539 0,0.63752 -0.6582,0.11867 -2.5001,-1.97065 z m -4.4865,-5.28365 -1.5485,-1.82896 1.829,1.54851 c 1.7187,1.45522 2.1989,2.10941 1.5485,2.10941 -0.1543,0 -0.9773,-0.82304 -1.829,-1.82896 z m -20.3218,-23.57325 -1.5485,-1.82896 1.829,1.54851 c 1.7187,1.45522 2.199,2.10941 1.5485,2.10941 -0.1543,0 -0.9773,-0.82303 -1.829,-1.82896 z m -6.464,-7.31583 -3.2132,-3.4547 3.4547,3.21324 c 1.9001,1.76727 3.4547,3.32189 3.4547,3.4547 0,0.615 -0.7079,-4e-4 -3.6962,-3.21324 z m -4.5362,-5.28366 c -1.011,-1.28926 -0.9824,-1.31801 0.3069,-0.30691 0.7824,0.6136 1.4226,1.25373 1.4226,1.42253 0,0.66902 -0.6676,0.23842 -1.7295,-1.11562 z m -3.2515,-3.25148 c -1.011,-1.28926 -0.9823,-1.31801 0.307,-0.30691 1.354,1.06191 1.7846,1.72943 1.1155,1.72943 -0.1687,0 -0.8088,-0.64013 -1.4225,-1.42252 z m -27.6376,-29.26334 c -1.011,-1.28926 -0.9823,-1.31801 0.307,-0.3069 0.7823,0.61359 1.4225,1.25373 1.4225,1.42252 0,0.66902 -0.6675,0.23842 -1.7295,-1.11562 z m -4.8772,-4.87722 c -1.011,-1.28926 -0.9824,-1.31801 0.3069,-0.30691 1.354,1.06191 1.7847,1.72943 1.1156,1.72943 -0.1687,0 -0.8089,-0.64013 -1.4225,-1.42252 z m -4.8772,-4.87722 c -1.0111,-1.28926 -0.9824,-1.31802 0.3069,-0.30691 1.354,1.06191 1.7847,1.72943 1.1156,1.72943 -0.1688,0 -0.8089,-0.64014 -1.4225,-1.42252 z m -5.2572,-5.28366 -1.5485,-1.82896 1.829,1.54851 c 1.7187,1.45522 2.1989,2.10941 1.5485,2.10941 -0.1543,0 -0.9773,-0.82303 -1.829,-1.82896 z m -4.8772,-4.87722 -1.5485,-1.82896 1.8289,1.54851 c 1.7188,1.45521 2.199,2.1094 1.5486,2.1094 -0.1543,0 -0.9774,-0.82303 -1.829,-1.82895 z m -37.0121,-33.73413 c -1.0111,-1.28926 -0.9824,-1.31801 0.3069,-0.30691 1.354,1.06191 1.7847,1.72944 1.1156,1.72944 -0.1687,0 -0.8089,-0.64014 -1.4225,-1.42253 z m -6.8829,-6.09653 -1.5485,-1.82896 1.8289,1.54851 c 1.7188,1.45522 2.199,2.10941 1.5485,2.10941 -0.1542,0 -0.9773,-0.82303 -1.8289,-1.82896 z m -27.2577,-22.35393 c -1.011,-1.28927 -0.9823,-1.31802 0.307,-0.30691 0.7824,0.61359 1.4225,1.25373 1.4225,1.42252 0,0.66903 -0.6675,0.23842 -1.7295,-1.11561 z"
       id="path20" />
    <path
       style="fill:#ffffff;fill-opacity:1;stroke-width:0.81287"
       d="m 1203.8612,1420.5906 c 0,-0.1687 0.6401,-0.8089 1.4225,-1.4225 1.2893,-1.011 1.318,-0.9823 0.3069,0.3069 -1.0619,1.354 -1.7294,1.7847 -1.7294,1.1156 z m -650.78008,-29.9725 -1.54851,-1.8289 1.82896,1.5485 c 1.71876,1.4552 2.19901,2.1094 1.54851,2.1094 -0.15425,0 -0.97728,-0.823 -1.82896,-1.829 z m 685.73348,-9.0453 c 0,-0.1687 0.6401,-0.8088 1.4225,-1.4225 1.2893,-1.011 1.318,-0.9823 0.307,0.307 -1.062,1.354 -1.7295,1.7846 -1.7295,1.1155 z m -781.65219,-8.8378 -1.54851,-1.829 1.82895,1.5486 c 1.71877,1.4552 2.19901,2.1094 1.54851,2.1094 -0.15425,0 -0.97728,-0.8231 -1.82895,-1.829 z m -36.1992,-45.1143 c -1.0111,-1.2893 -0.98235,-1.318 0.30691,-0.307 0.78239,0.6137 1.42252,1.2538 1.42252,1.4226 0,0.669 -0.66752,0.2384 -1.72943,-1.1156 z m 873.12659,-7.0131 c 0,-0.1688 0.6401,-0.8089 1.4225,-1.4226 1.2893,-1.011 1.318,-0.9823 0.3069,0.307 -1.0619,1.354 -1.7294,1.7846 -1.7294,1.1156 z m -443.20813,-5.9581 c 1.01113,-0.1945 2.4743,-0.1871 3.25148,0.016 0.7771,0.2035 -0.0504,0.3626 -1.83847,0.3535 -1.78831,-0.01 -2.42422,-0.1755 -1.41301,-0.3699 z m -99.08018,-72.3802 c -1.01111,-1.2893 -0.98235,-1.318 0.30691,-0.307 1.35404,1.062 1.78464,1.7295 1.11561,1.7295 -0.16879,0 -0.80893,-0.6401 -1.42252,-1.4225 z m 62.5423,-63.3495 c 0.58681,-0.2349 1.28791,-0.206 1.55803,0.064 0.27012,0.2701 -0.21005,0.4623 -1.06689,0.427 -0.947,-0.039 -1.13956,-0.2317 -0.49114,-0.4911 z m -35.00423,-10.5504 c 0.55885,-0.2255 1.47333,-0.2255 2.03217,0 0.55885,0.2255 0.10161,0.41 -1.01608,0.41 -1.1177,0 -1.57494,-0.1845 -1.01609,-0.41 z m 193.46317,0 c 0.55885,-0.2255 1.47333,-0.2255 2.03217,0 0.55885,0.2255 0.10161,0.41 -1.01608,0.41 -1.1177,0 -1.57494,-0.1845 -1.01609,-0.41 z m -199.91533,-0.8298 c 0.58678,-0.2349 1.28789,-0.206 1.558,0.064 0.27011,0.2701 -0.20999,0.4623 -1.06689,0.427 -0.94695,-0.039 -1.13956,-0.2317 -0.49111,-0.4911 z m 281.4056,-24.9507 c 0,-0.1687 0.6401,-0.8089 1.4225,-1.4225 1.2893,-1.011 1.318,-0.9823 0.307,0.3069 -1.062,1.354 -1.7295,1.7847 -1.7295,1.1156 z m 40.6435,-44.7078 c 0,-0.1688 0.6402,-0.8089 1.4225,-1.4226 1.2893,-1.011 1.318,-0.9823 0.307,0.307 -1.062,1.354 -1.7295,1.7846 -1.7295,1.1156 z m -146.46908,-4.3127 c 0.58681,-0.2349 1.28791,-0.206 1.55803,0.064 0.27011,0.2701 -0.21005,0.4623 -1.0669,0.427 -0.94699,-0.039 -1.13956,-0.2317 -0.49113,-0.4911 z m 5.69009,0 c 0.58681,-0.2349 1.28791,-0.206 1.55803,0.064 0.27012,0.2701 -0.21005,0.4623 -1.06689,0.427 -0.947,-0.039 -1.13957,-0.2317 -0.49114,-0.4911 z m 145.65619,-0.5646 c 0,-0.1687 0.6402,-0.8089 1.4226,-1.4225 1.2893,-1.011 1.3179,-0.9823 0.3069,0.307 -1.0619,1.3539 -1.7295,1.7846 -1.7295,1.1155 z m -780.29143,-63.5711 c 0.039,-0.947 0.23162,-1.1395 0.4911,-0.4911 0.23482,0.5868 0.20594,1.2879 -0.0641,1.558 -0.27011,0.2701 -0.46223,-0.21 -0.42694,-1.0669 z m 0,-53.64942 c 0.039,-0.94699 0.23162,-1.13956 0.4911,-0.49114 0.23482,0.58681 0.20594,1.28792 -0.0641,1.55803 -0.27011,0.27012 -0.46223,-0.21004 -0.42694,-1.06689 z m 269.9974,-5.21595 c 0,-1.56477 0.16729,-2.20491 0.37175,-1.42252 0.20446,0.78239 0.20446,2.06266 0,2.84505 -0.20446,0.78239 -0.37175,0.14225 -0.37175,-1.42253 z m 895.78323,-3.25148 c 0,-1.56477 0.1673,-2.20491 0.3717,-1.42252 0.2046,0.78239 0.2046,2.06266 0,2.84505 -0.2044,0.78238 -0.3717,0.14225 -0.3717,-1.42253 z M 861.77104,940.49113 c 0,-1.1177 0.18453,-1.57494 0.41002,-1.01609 0.22549,0.55885 0.22549,1.47333 0,2.03218 -0.22549,0.55884 -0.41002,0.1016 -0.41002,-1.01609 z M 731.431,888.72502 c 0.58679,-0.23484 1.2879,-0.20599 1.55801,0.0642 0.27011,0.27012 -0.21,0.46228 -1.06689,0.427 -0.94696,-0.039 -1.13957,-0.23166 -0.49112,-0.49113 z m -71.5834,-1.60884 c 0.55885,-0.22549 1.47333,-0.22549 2.03218,0 0.55884,0.22549 0.1016,0.41001 -1.01609,0.41001 -1.1177,0 -1.57494,-0.18452 -1.01609,-0.41001 z m 520.0339,-2.71312 c 0.8092,-0.89415 1.6542,-1.62574 1.8777,-1.62574 0.2235,0 -0.2556,0.73159 -1.0649,1.62574 -0.8092,0.89416 -1.6541,1.62575 -1.8777,1.62575 -0.2235,0 0.2557,-0.73159 1.0649,-1.62575 z m -240.95198,-0.47414 c 0.039,-0.947 0.23167,-1.13957 0.49114,-0.49114 0.23484,0.58681 0.20598,1.28791 -0.0642,1.55803 -0.27012,0.27012 -0.46228,-0.21005 -0.427,-1.06689 z m 546.38978,-37.32433 c 0.01,-1.78832 0.1755,-2.42423 0.37,-1.41301 0.1944,1.01113 0.187,2.47429 -0.016,3.25148 -0.2034,0.7771 -0.3625,-0.0504 -0.3535,-1.83847 z m -221.1774,-4.47079 c 0,-1.1177 0.1845,-1.57494 0.41,-1.01609 0.2255,0.55885 0.2255,1.47333 0,2.03218 -0.2255,0.55885 -0.41,0.10161 -0.41,-1.01609 z M 411.31245,784.11309 c 0,-0.16879 0.64014,-0.80893 1.42253,-1.42252 1.28926,-1.01111 1.31801,-0.98236 0.30691,0.3069 -1.06191,1.35404 -1.72944,1.78465 -1.72944,1.11562 z M 1474.6112,779.0686 c 0.039,-0.94695 0.2316,-1.13956 0.4911,-0.49111 0.2348,0.58679 0.206,1.2879 -0.064,1.55801 -0.2701,0.2701 -0.4623,-0.21 -0.427,-1.0669 z m -257.8478,-19.64437 c -1.0111,-1.28926 -0.9824,-1.31801 0.3069,-0.30691 0.7824,0.6136 1.4225,1.25373 1.4225,1.42253 0,0.66902 -0.6675,0.23842 -1.7294,-1.11562 z m -781.8777,-4.57448 c 0,-0.16879 0.64013,-0.80892 1.42252,-1.42252 1.28926,-1.0111 1.31801,-0.98235 0.30691,0.30691 -1.06191,1.35404 -1.72943,1.78464 -1.72943,1.11561 z m 772.1232,-5.99283 c -1.011,-1.28927 -0.9823,-1.31802 0.307,-0.30691 0.7823,0.61359 1.4225,1.25373 1.4225,1.42252 0,0.66903 -0.6675,0.23842 -1.7295,-1.11561 z m -518.71083,-3.18018 c 0.55884,-0.2255 1.47332,-0.2255 2.03217,0 0.55885,0.2255 0.10161,0.41 -1.01609,0.41 -1.11769,0 -1.57493,-0.1845 -1.01608,-0.41 z m 393.03833,-33.35265 c 0.7909,-0.2061 1.8883,-0.19255 2.4386,0.0302 0.5504,0.22267 -0.097,0.39129 -1.438,0.37473 -1.3412,-0.0166 -1.7915,-0.19875 -1.0006,-0.40484 z m 9.7544,0 c 0.7909,-0.2061 1.8883,-0.19255 2.4386,0.0302 0.5504,0.22267 -0.097,0.39129 -1.4379,0.37473 -1.3413,-0.0166 -1.7915,-0.19875 -1.0007,-0.40484 z m 65.1402,-12.64584 -1.5485,-1.82896 1.829,1.54851 c 1.7187,1.45522 2.1989,2.10941 1.5485,2.10941 -0.1543,0 -0.9773,-0.82303 -1.829,-1.82896 z m 88.9828,-3.65792 c -1.011,-1.28926 -0.9823,-1.31801 0.307,-0.3069 0.7824,0.61359 1.4225,1.25373 1.4225,1.42252 0,0.66903 -0.6675,0.23842 -1.7295,-1.11562 z m -4.8772,-4.87722 c -1.011,-1.28926 -0.9823,-1.31801 0.3069,-0.30691 0.7824,0.6136 1.4226,1.25374 1.4226,1.42253 0,0.66902 -0.6676,0.23842 -1.7295,-1.11562 z m -4.8772,-4.87722 c -1.0111,-1.28926 -0.9824,-1.31801 0.3069,-0.30691 0.7824,0.6136 1.4225,1.25373 1.4225,1.42253 0,0.66902 -0.6675,0.23842 -1.7294,-1.11562 z m -5.2572,-5.28366 -1.5485,-1.82896 1.829,1.54851 c 1.7187,1.45522 2.1989,2.10941 1.5485,2.10941 -0.1543,0 -0.9773,-0.82303 -1.829,-1.82896 z m -5.3101,-5.28366 c -1.0111,-1.28926 -0.9824,-1.31801 0.3069,-0.3069 0.7824,0.61359 1.4225,1.25373 1.4225,1.42252 0,0.66902 -0.6675,0.23842 -1.7294,-1.11562 z m -104.0475,-5.69009 c -1.011,-1.28926 -0.9823,-1.31801 0.307,-0.30691 0.7824,0.6136 1.4225,1.25373 1.4225,1.42253 0,0.66902 -0.6675,0.23842 -1.7295,-1.11562 z m 111.3633,-358.47587 c -1.011,-1.28927 -0.9824,-1.31802 0.3069,-0.30691 1.354,1.06191 1.7847,1.72943 1.1156,1.72943 -0.1687,0 -0.8089,-0.64014 -1.4225,-1.42252 z m -95.9187,-99.1702 c -1.0111,-1.28926 -0.9824,-1.31801 0.3069,-0.30691 0.7824,0.6136 1.4225,1.25373 1.4225,1.42252 0,0.66903 -0.6675,0.23843 -1.7294,-1.11561 z m -5.2572,-4.47079 -1.5485,-1.82896 1.829,1.54851 c 1.7187,1.45522 2.1989,2.10941 1.5485,2.10941 -0.1543,0 -0.9773,-0.82303 -1.829,-1.82896 z m -29.6962,-25.60542 c -1.0111,-1.28926 -0.9824,-1.31801 0.3069,-0.30691 1.354,1.06191 1.7847,1.72943 1.1156,1.72943 -0.1688,0 -0.8089,-0.64013 -1.4225,-1.42252 z"
       id="path18" />
    <path
       style="fill:#ffffff;fill-opacity:1;stroke-width:0.81287"
       d="m 664.3645,1666.9941 c -1.26973,-2.3472 -2.93511,-5.3649 -3.70085,-6.7062 -0.76575,-1.3412 -2.50233,-4.6333 -3.85907,-7.3158 -1.35674,-2.6825 -4.69311,-8.718 -7.41415,-13.4124 -2.72105,-4.6943 -5.75483,-9.9983 -6.74174,-11.7866 -0.98691,-1.7883 -2.77915,-4.7989 -3.98276,-6.69 -1.2036,-1.8912 -2.18836,-3.6543 -2.18836,-3.918 0,-0.2636 -1.09737,-2.0742 -2.43861,-4.0237 -1.34123,-1.9494 -2.43861,-3.7616 -2.43861,-4.0272 0,-0.2655 -1.18882,-2.2394 -2.64183,-4.3865 -1.453,-2.1471 -3.9221,-6.0114 -5.48687,-8.5873 -5.63106,-9.2698 -32.29879,-49.1024 -41.05168,-61.3172 -4.91692,-6.8618 -9.47937,-13.2632 -10.13878,-14.2253 -1.79727,-2.6225 -38.19513,-51.2363 -43.55109,-58.1679 -5.67628,-7.3459 -11.94089,-15.3935 -19.4313,-24.9614 -5.33982,-6.8209 -101.46989,-127.2278 -103.24874,-129.3234 -0.45877,-0.5404 -2.01243,-2.5522 -3.45258,-4.4708 -1.44014,-1.9184 -5.48116,-7.146 -8.98003,-11.6168 -26.42408,-33.7641 -49.53512,-65.4135 -65.59014,-89.8222 -8.8846,-13.5074 -10.10233,-15.4025 -15.15205,-23.5808 -1.52084,-2.4631 -3.21988,-5.2065 -3.77564,-6.0965 -0.55575,-0.89 -2.31325,-3.9958 -3.90555,-6.9019 -1.59231,-2.906 -4.1227,-7.4784 -5.62311,-10.1608 -2.47181,-4.4192 -10.95048,-21.1737 -17.42206,-34.4272 -1.38681,-2.8402 -2.52146,-5.4822 -2.52146,-5.8711 0,-0.389 -0.87222,-2.6376 -1.93826,-4.9971 -1.06604,-2.3593 -2.40118,-5.57 -2.96698,-7.1348 -0.5658,-1.5648 -1.49012,-3.9424 -2.05405,-5.2836 -0.56393,-1.3413 -1.83341,-4.9992 -2.82106,-8.1287 -0.98766,-3.1296 -2.2587,-6.7875 -2.82455,-8.1287 -0.56585,-1.3413 -1.86185,-4.6334 -2.88,-7.3159 -1.01815,-2.6825 -2.09645,-5.243 -2.39622,-5.6901 -0.29977,-0.4471 -1.37763,-3.3734 -2.39524,-6.5029 -1.01761,-3.1296 -2.33103,-6.7875 -2.9187,-8.1287 -1.65264,-3.7718 -8.87178,-26.4478 -12.1629,-38.205 -1.62693,-5.812 -3.17121,-11.116 -3.43172,-11.7866 -0.26051,-0.6706 -0.5647,-1.6477 -0.67598,-2.1712 -1.57567,-7.4139 -3.9133,-17.10242 -4.27295,-17.70972 -0.25357,-0.42814 -0.54213,-1.52551 -0.64124,-2.43861 -0.0991,-0.9131 -1.4779,-8.24438 -3.06394,-16.29179 -4.89519,-24.8375 -8.92432,-55.98816 -10.01451,-77.42592 -0.27852,-5.47671 -0.81573,-9.95766 -1.19382,-9.95766 -0.89789,0 -0.89918,-62.36423 -0.002,-62.9191 0.37737,-0.23329 0.92712,-5.18549 1.22165,-11.005 0.29454,-5.81949 1.25733,-17.38174 2.13954,-25.69387 0.88222,-8.31214 1.55467,-15.36117 1.49434,-15.66452 -0.0603,-0.30336 0.0917,-1.10024 0.33782,-1.77086 0.40167,-1.09446 3.96706,-24.84972 4.33108,-28.8569 0.0812,-0.89415 0.34308,-2.17443 0.58189,-2.84504 0.53876,-1.51295 3.9547,-19.173 4.24525,-21.94751 0.11704,-1.11769 0.41424,-2.58086 0.66043,-3.25148 0.62112,-1.69194 3.91981,-16.29432 4.13939,-18.32397 0.0988,-0.91307 0.46767,-2.12623 0.81975,-2.69591 0.35208,-0.56968 0.42379,-1.25213 0.15937,-1.51656 -0.26443,-0.26443 -0.17096,-0.88023 0.20772,-1.36844 0.37867,-0.48822 1.12317,-2.71663 1.65444,-4.95202 0.53127,-2.23539 2.47147,-9.36833 4.31154,-15.85097 1.84008,-6.48265 3.41926,-12.33531 3.5093,-13.00593 0.09,-0.67062 0.37752,-1.76799 0.63886,-2.43861 0.26133,-0.67062 3.62206,-10.72989 7.46828,-22.35394 3.84623,-11.62405 7.47765,-22.23201 8.06984,-23.57324 0.59218,-1.34124 1.7163,-4.26757 2.49803,-6.50297 0.78174,-2.23539 1.89543,-5.16172 2.47489,-6.50296 0.57946,-1.34124 1.67169,-4.08468 2.42718,-6.09653 0.75549,-2.01185 2.24869,-5.58832 3.31822,-7.94771 1.06953,-2.35938 1.9446,-4.75532 1.9446,-5.3243 0,-0.56898 0.303,-1.38201 0.67334,-1.80674 0.37034,-0.42472 1.88113,-3.69856 3.35731,-7.27519 1.47617,-3.57663 3.53919,-8.33192 4.58448,-10.56731 1.0453,-2.2354 3.06478,-6.6249 4.48775,-9.75445 9.12387,-20.06619 27.82086,-55.97345 39.3635,-75.59695 3.68163,-6.2591 7.37435,-12.55278 8.20604,-13.98595 22.81226,-39.30949 63.01704,-94.56892 99.81468,-137.18972 32.31565,-37.42954 74.84022,-79.33585 110.60553,-108.9974 10.48969,-8.6995 20.54654,-16.83495 24.04906,-19.45437 1.1956,-0.89416 5.78426,-4.33233 10.19702,-7.64038 13.46156,-10.09156 15.96777,-11.93216 21.02911,-15.44413 6.0041,-4.16613 24.84095,-16.68472 29.26334,-19.44782 1.78831,-1.11733 4.77444,-3.06985 6.63585,-4.33893 1.8614,-1.26907 3.63731,-2.3074 3.94646,-2.3074 0.30916,0 2.1881,-1.09738 4.17544,-2.43862 1.98733,-1.34123 3.91146,-2.43861 4.27583,-2.43861 0.36438,0 1.53486,-0.68224 2.60108,-1.51608 1.06622,-0.83385 4.13333,-2.71162 6.8158,-4.17282 2.68248,-1.46119 7.07198,-3.86081 9.75445,-5.33247 5.23288,-2.87086 27.44729,-13.92282 34.14056,-16.985364 2.23539,-1.022819 5.89331,-2.675344 8.1287,-3.672264 2.2354,-0.996929 4.69952,-2.141508 5.47585,-2.543513 0.77632,-0.402005 1.80277,-0.730917 2.28099,-0.730917 0.47822,0 3.04372,-1.078752 5.70112,-2.39722 2.6574,-1.318475 4.83163,-2.238295 4.83163,-2.044044 0,0.329961 6.51659,-2.011399 10.16088,-3.650715 2.1564,-0.970014 17.9442,-6.002279 25.60542,-8.161565 3.35309,-0.945056 6.64522,-1.93732 7.31583,-2.205031 0.67062,-0.267712 1.5851,-0.557836 2.03218,-0.64472 0.44708,-0.08689 0.99577,-0.24417 1.21931,-0.349523 0.22353,-0.105353 1.13801,-0.28714 2.03217,-0.403971 2.52914,-0.33046 14.48895,-2.97202 15.85098,-3.501002 0.67061,-0.260453 1.54822,-0.397287 1.95023,-0.304074 0.40202,0.09321 1.3165,-0.07162 2.03218,-0.366307 0.71568,-0.294681 2.39862,-0.639563 3.73986,-0.766404 1.34123,-0.126841 7.00011,-0.81841 12.57518,-1.53682 5.57516,-0.718409 12.04642,-1.306199 14.38049,-1.306199 2.33416,0 4.46998,-0.365792 4.74627,-0.812871 0.66347,-1.073539 18.84543,-1.073539 19.50889,0 0.2763,0.447079 2.40122,0.819572 4.72197,0.827762 2.32083,0.0082 8.06042,0.569694 12.75475,1.247786 4.69433,0.678091 9.99831,1.429182 11.78662,1.669091 4.2657,0.572257 5.44282,0.808971 6.9094,1.389469 0.67062,0.265435 4.41974,1.223779 8.33135,2.129652 7.33909,1.69964 17.83975,4.905739 29.87356,9.12109 6.83901,2.395653 8.04839,2.848446 12.39628,4.64102 1.22946,0.506898 3.24132,1.325938 4.47078,1.820082 1.22947,0.494144 3.33277,1.377954 4.67401,1.964017 1.34124,0.586064 4.08467,1.732569 6.09653,2.54778 4.37113,1.77122 26.85033,13.027195 33.73412,16.891615 2.68247,1.5059 5.9746,3.30006 7.31581,3.98704 1.3412,0.68697 4.8163,2.71914 7.7223,4.51592 2.906,1.7968 6.381,3.88048 7.7222,4.63042 4.8773,2.72708 27.0051,17.31682 36.1728,23.85005 3.8002,2.70817 7.8239,5.5559 8.9416,6.3283 11.8578,8.19458 45.6577,35.02545 58.5083,46.44489 28.8213,25.61125 31.0494,27.69189 53.3883,49.85574 16.2751,16.14742 21.7875,21.93611 38.6038,40.53839 13.4296,14.85591 17.3618,19.35455 28.3788,32.46695 5.4467,6.48264 10.6836,12.7011 11.6376,13.8188 0.954,1.1177 5.9275,7.33616 11.0524,13.8188 5.1248,6.48264 9.6217,12.15241 9.9931,12.59949 0.3714,0.44708 3.4342,4.47079 6.8063,8.94158 3.3721,4.47078 6.8473,9.04318 7.7226,10.16088 4.2302,5.4015 24.7721,34.62463 34.0676,48.46498 43.66,65.0067 81.5776,135.70896 108.6055,202.50928 6.3764,15.75944 14.7995,37.88404 15.2241,39.9889 0.1403,0.69508 0.4826,1.81246 0.7607,2.48307 1.485,3.58077 5.4554,14.92773 5.7683,16.4849 0.1995,0.99258 1.4926,5.09682 2.8737,9.12052 1.3811,4.02371 2.4926,7.41057 2.47,7.52635 -0.023,0.11577 0.9033,3.30638 2.0574,7.09023 1.1541,3.78384 2.2473,7.52993 2.4291,8.32463 0.1819,0.79469 1.2654,4.73703 2.4077,8.76074 1.1424,4.02371 2.2415,8.04742 2.4426,8.94158 0.201,0.89415 1.2502,4.99133 2.3316,9.10483 1.0814,4.1135 1.7741,7.67113 1.5394,7.90584 -0.2348,0.23472 -0.059,0.89283 0.3911,1.46248 0.4499,0.56966 0.8488,1.58443 0.8866,2.25504 0.037,0.67062 0.8416,4.32854 1.7865,8.12871 0.9449,3.80017 1.7436,8.00677 1.7749,9.34801 0.032,1.34124 0.3248,2.8044 0.6522,3.25148 0.3272,0.44708 0.6342,1.36156 0.6821,2.03218 0.048,0.67062 0.2787,2.13378 0.5127,3.25148 2.0429,9.75431 2.937,14.56274 3.3053,17.77666 0.2373,2.07042 0.6029,4.67889 0.8124,5.79658 0.8896,4.74578 1.3186,7.50011 2.8489,18.28959 0.8878,6.2591 1.8014,13.94073 2.0304,17.07028 0.229,3.12955 0.6147,7.51905 0.8572,9.75444 1.4694,13.54893 1.9112,21.00376 2.433,41.04996 0.5374,20.64691 -0.6365,58.43612 -1.8778,60.45131 -0.239,0.38798 -0.5617,2.21694 -0.7172,4.06435 -1.3034,15.48908 -1.8887,21.07871 -2.8623,27.3387 -0.452,2.90602 -1.0255,5.83235 -1.2745,6.50297 -0.2489,0.67062 -0.5734,1.95089 -0.721,2.84504 -0.1477,0.89416 -0.4543,2.72312 -0.6814,4.06438 -0.227,1.3412 -0.6139,3.9018 -0.8597,5.6901 -0.6824,4.9638 -2.1689,12.0978 -2.7072,12.9916 -0.2645,0.4392 -0.5569,1.3537 -0.6498,2.0322 -0.093,0.6785 -0.4061,2.1481 -0.6961,3.2658 -0.29,1.1177 -0.7212,3.1295 -0.958,4.4707 -0.7598,4.3029 -2.5786,10.8074 -3.5067,12.5417 -0.4956,0.926 -0.7519,1.6836 -0.5696,1.6836 1.0305,0 -8.8185,30.2009 -13.6521,41.8628 -0.5559,1.3412 -2.7663,6.8281 -4.912,12.1931 -5.0411,12.6048 -6.701,16.2536 -13.8671,30.4826 -7.5319,14.9554 -9.8878,19.4618 -10.7783,20.617 -0.3918,0.5082 -1.5876,2.5701 -2.6574,4.582 -1.0698,2.0118 -2.681,4.7553 -3.5805,6.0965 -1.8853,2.8114 -2.635,4.0324 -6.2389,10.1609 -1.4459,2.4589 -3.1347,4.9848 -3.7528,5.613 -0.618,0.6282 -1.4541,1.9085 -1.858,2.8451 -0.4039,0.9365 -2.3775,3.8975 -4.3859,6.58 -2.0083,2.6825 -4.2376,5.9226 -4.9539,7.2002 -1.244,2.219 -6.9825,10.2457 -9.1137,12.7477 -0.556,0.6527 -4.1682,5.4848 -8.0273,10.738 -3.859,5.2531 -7.3311,9.5512 -7.7157,9.5512 -0.3847,0 -0.6993,0.3862 -0.6993,0.8581 0,0.7771 -10.2988,14.2923 -13.9025,18.2443 -0.8153,0.8942 -2.3914,2.7232 -3.5024,4.0644 -1.111,1.3412 -6.109,7.3768 -11.1068,13.4124 -4.9977,6.0355 -9.8634,11.7636 -10.8126,12.729 -0.9491,0.9655 -2.8988,3.1602 -4.3326,4.8772 -8.6198,10.323 -25.7691,29.5402 -26.3614,29.5402 -0.3858,0 -0.7015,0.49 -0.7015,1.0887 0,0.5988 -1.1888,2.1861 -2.6418,3.5272 -1.453,1.3412 -4.6537,4.7469 -7.1126,7.5682 -4.1587,4.7714 -6.3352,7.2121 -15.1582,16.9978 -1.8544,2.0567 -6.7926,7.5767 -10.9737,12.2668 -4.1813,4.6901 -9.1569,10.0952 -11.0569,12.0112 -1.9001,1.9161 -3.4547,3.6819 -3.4547,3.9238 0,0.5091 -7.12,8.2329 -11.5834,12.5658 -1.6766,1.6275 -3.0483,3.3346 -3.0483,3.7933 0,0.4589 -1.6172,2.325 -3.5939,4.147 -1.9766,1.822 -3.897,3.8393 -4.2675,4.4829 -0.5899,1.0246 -7.9405,9.2962 -15.3054,17.2232 -4.9029,5.277 -11.9606,13.228 -20.9139,23.5609 -9.4319,10.8853 -12.9554,14.8991 -17.4491,19.877 -1.4282,1.5821 -5.2218,5.9857 -8.4305,9.7859 -3.2086,3.8002 -7.753,9.1041 -10.0987,11.7866 -2.3456,2.6825 -6.2479,7.2549 -8.6717,10.1609 -9.1243,10.9395 -17.9981,21.6492 -20.4748,24.7108 -1.4103,1.7433 -3.3872,3.98 -4.3932,4.9704 -1.0059,0.9904 -1.8289,2.1501 -1.8289,2.577 0,0.427 -0.823,1.5442 -1.829,2.4827 -1.0059,0.9385 -3.6579,4.1759 -5.8933,7.1944 -2.2354,3.0183 -4.8874,6.2906 -5.8933,7.2717 -1.0059,0.9811 -1.829,2.0948 -1.829,2.4749 0,0.3801 -0.742,1.4355 -1.6489,2.3454 -0.907,0.9099 -4.6741,5.7059 -8.3712,10.6578 -3.6971,4.952 -7.1661,9.5244 -7.7087,10.1609 -0.5426,0.6366 -2.0752,2.6206 -3.4058,4.4089 -1.3306,1.7883 -2.7894,3.6932 -3.2418,4.2332 -0.4524,0.54 -0.8225,1.3183 -0.8225,1.7294 0,0.4112 -0.5973,1.2433 -1.3271,1.8491 -0.7299,0.6057 -2.1016,2.2631 -3.0483,3.6829 -5.1477,7.7211 -12.3886,17.9694 -13.6678,19.3445 -0.8061,0.8667 -1.4657,1.897 -1.4657,2.2896 0,0.3927 -1.006,2.0263 -2.2354,3.6304 -1.2295,1.6041 -2.967,4.1177 -3.8612,5.5858 -0.8941,1.4681 -3.2723,5.1609 -5.2849,8.2063 -4.3947,6.6498 -5.312,8.0804 -7.1346,11.1278 -0.7696,1.2866 -2.5881,4.1127 -4.0411,6.28 -1.453,2.1675 -2.6418,4.1382 -2.6418,4.3794 0,0.2411 -1.2011,2.3532 -2.6692,4.6936 -3.4708,5.5328 -3.4425,5.4837 -11.1939,19.4963 l -6.6325,11.9899 h -34.32454 c -18.8786,0 -34.52733,-0.2027 -34.77501,-0.4504 -0.24768,-0.2476 0.23565,-1.8023 1.07405,-3.4547 0.83831,-1.6524 4.58353,-9.2228 8.32257,-16.8231 3.73912,-7.6004 9.0088,-17.8425 11.71046,-22.7604 5.13783,-9.3524 12.67574,-22.7037 13.99746,-24.7925 0.42432,-0.6707 1.75654,-2.8654 2.9604,-4.8773 9.72973,-16.2593 23.87641,-37.8155 37.25521,-56.768 1.3686,-1.9388 3.037,-4.3238 3.7077,-5.3002 2.448,-3.564 21.9321,-29.6711 25.5664,-34.2569 1.4172,-1.7883 6.757,-8.5555 11.866,-15.0381 31.5195,-39.9936 62.4423,-75.834 130.4482,-151.1939 69.811,-77.3602 100.3782,-113.4875 132.3955,-156.4776 18.3415,-24.6274 28.2429,-39.3835 42.3488,-63.1124 9.18,-15.4427 18.8143,-35.1376 24.5971,-50.283 2.8552,-7.4777 5.881,-17.3458 5.4506,-17.7761 -0.2001,-0.2001 0.051,-0.8637 0.5578,-1.4745 0.5069,-0.6108 0.6898,-1.3424 0.4065,-1.6257 -0.2834,-0.2834 -0.1544,-0.95 0.2867,-1.4815 0.4411,-0.5315 1.5777,-5.5034 2.5258,-11.0485 1.5023,-8.7873 1.6677,-12.1705 1.2877,-26.3397 -0.3945,-14.70084 -2.8883,-37.26426 -4.3866,-39.68873 -0.2689,-0.43504 -0.6224,-2.29099 -0.7854,-4.12434 -0.4936,-5.54629 -9.238,-35.45261 -12.8587,-43.97694 -0.5697,-1.34124 -2.2232,-5.73074 -3.6744,-9.75445 -1.4512,-4.02371 -2.9582,-7.66333 -3.3488,-8.08806 -0.3907,-0.42472 -0.7103,-1.25174 -0.7103,-1.83782 0,-0.58608 -0.768,-2.79912 -1.7068,-4.91786 -0.9387,-2.11875 -1.9977,-4.58386 -2.3534,-5.47802 -0.7823,-1.96666 -3.4542,-7.97897 -8.0832,-18.18854 -5.2726,-11.62901 -19.7339,-39.37846 -21.6906,-41.62141 -0.6157,-0.70582 -1.1195,-1.6007 -1.1195,-1.98852 0,-0.38783 -0.8518,-2.00511 -1.8929,-3.59387 -1.041,-1.58883 -3.2854,-5.26642 -4.9875,-8.17243 -1.702,-2.90602 -4.2683,-7.11262 -5.7029,-9.34802 -26.9525,-41.99922 -54.1642,-76.1658 -90.2191,-113.27752 -8.1936,-8.43376 -27.9008,-27.23915 -37.1012,-35.40349 -2.0613,-1.82917 -5.5273,-4.93131 -7.7022,-6.89365 -2.1749,-1.96233 -9.3896,-8.09676 -16.0325,-13.63207 C 1092.4912,562.3166 981.75926,500.50173 864.09724,459.11819 l -18.27374,-6.42714 -3.48542,1.3311 c -1.917,0.7321 -3.9499,1.79556 -4.51753,2.36324 -0.56771,0.56768 -2.66435,1.80484 -4.65921,2.74924 -1.99487,0.94441 -5.45599,2.75347 -7.69138,4.02014 -2.2354,1.26667 -6.99069,3.9026 -10.56732,5.85762 -3.57663,1.95502 -8.33192,4.63873 -10.56732,5.9638 -4.45701,2.64197 -8.03669,4.65099 -15.44453,8.66789 -2.68248,1.45457 -5.33882,3.01562 -5.90299,3.469 -0.56417,0.45338 -2.08544,1.41605 -3.38061,2.13928 -5.7926,3.23462 -12.11111,6.85914 -15.10252,8.66333 -1.78831,1.07857 -3.98306,2.35434 -4.87722,2.83503 -0.89416,0.4807 -2.9466,1.67821 -4.56098,2.66114 -1.61437,0.98292 -4.7236,2.84586 -6.9094,4.13986 -2.18579,1.294 -5.27409,3.2144 -6.8629,4.26757 -1.5888,1.05316 -3.15224,1.91484 -3.4743,1.91484 -0.32205,0 -2.38602,1.18883 -4.58659,2.64183 -3.97316,2.62341 -6.13448,3.95496 -16.28153,10.03071 -2.90601,1.74003 -5.46655,3.37659 -5.69009,3.63679 -0.22354,0.26021 -0.95513,0.73511 -1.62574,1.05534 -1.77222,0.84627 -3.92385,2.15493 -9.37864,5.70424 -2.66563,1.73447 -6.12687,3.97164 -7.69164,4.97148 -1.56478,0.99986 -6.13718,3.96793 -10.16089,6.59573 -4.0237,2.6278 -7.91208,5.14593 -8.64082,5.59583 -0.72876,0.4499 -4.16302,2.73842 -7.63169,5.08558 -3.46867,2.34717 -6.53034,4.26843 -6.80371,4.26948 -0.27336,8.1e-4 -1.77729,1.09756 -3.34207,2.4367 -1.56477,1.33914 -3.12292,2.43566 -3.46256,2.4367 -0.33962,8.2e-4 -3.26595,1.95585 -6.50296,4.344 -3.237,2.38815 -6.77688,4.81527 -7.86641,5.39362 -1.08954,0.57833 -2.7356,1.76548 -3.65792,2.63809 -0.92233,0.87262 -2.95722,2.24738 -4.522,3.05503 -1.56478,0.80765 -3.54187,2.23897 -4.39356,3.1807 -0.85167,0.94173 -1.90076,1.71224 -2.33129,1.71224 -0.43054,0 -1.98307,1.00592 -3.45005,2.23539 -1.467,1.22947 -4.56991,3.51566 -6.89538,5.08044 -2.32547,1.56478 -5.42838,3.85097 -6.89538,5.08044 -1.46698,1.22947 -3.05802,2.23539 -3.53563,2.23539 -0.47762,0 -1.16091,0.48797 -1.51844,1.08437 -0.35752,0.59639 -4.67375,4.069 -9.59162,7.71689 -4.91786,3.6479 -9.98759,7.45799 -11.26606,8.46687 -1.27846,1.00888 -3.71178,2.93171 -5.40739,4.27294 -1.6956,1.34124 -5.40487,4.25044 -8.24283,6.46491 -8.55315,6.67402 -31.86488,25.97204 -39.16866,32.42477 -2.60997,2.30585 -5.7192,5.05304 -6.9094,6.10488 -11.73968,10.37487 -49.39817,46.0494 -50.35235,47.69964 -0.32113,0.55539 -4.97338,5.57392 -10.33832,11.1523 -5.36495,5.57838 -11.9492,12.64532 -14.63167,15.7043 -2.68247,3.059 -6.06605,6.70078 -7.51905,8.09286 -1.45301,1.39207 -2.64183,2.88086 -2.64183,3.30841 0,0.42754 -1.00593,1.75129 -2.2354,2.94165 -1.22946,1.19036 -3.03558,3.19222 -4.01359,4.44858 -0.97802,1.25636 -2.98987,3.74407 -4.47079,5.52824 -1.48092,1.78416 -2.9637,3.61312 -3.29506,4.06435 -0.33137,0.45123 -2.70901,3.45915 -5.28366,6.68428 -2.57465,3.22513 -6.14435,7.92252 -7.93266,10.43864 -1.78832,2.51612 -4.16596,5.73125 -5.28366,7.14473 -1.1177,1.41348 -2.39797,3.1471 -2.84505,3.85248 -3.43164,5.41434 -6.95488,10.33743 -8.04622,11.24317 -0.71598,0.59421 -1.30179,1.41928 -1.30179,1.83344 0,0.41416 -1.41002,2.83846 -3.13338,5.38738 -1.72335,2.54884 -4.03762,6.09742 -5.14283,7.88574 -1.10519,1.78831 -3.02039,4.78203 -4.256,6.65277 -1.23561,1.87074 -2.94165,4.61418 -3.79122,6.09653 -0.84955,1.48235 -2.48963,4.3413 -3.64462,6.35315 -6.35116,11.06301 -9.11599,16.28521 -15.06289,28.45047 -9.31105,19.04718 -13.39421,28.08386 -16.1607,35.7663 -0.56348,1.56478 -1.69569,4.35926 -2.51603,6.21001 -0.82034,1.85082 -1.74195,4.41136 -2.04804,5.69009 -0.30609,1.27881 -0.83,2.69092 -1.16425,3.138 -0.57017,0.76264 -6.63112,19.6535 -6.45227,20.11058 0.0454,0.11616 -0.34547,1.30856 -0.86869,2.6498 -0.52323,1.34123 -1.11664,3.53598 -1.3187,4.87722 -0.20204,1.34124 -0.94674,4.45046 -1.65486,6.9094 -0.70812,2.45893 -1.39977,5.38526 -1.537,6.50296 -0.13723,1.1177 -0.45324,3.12955 -0.70225,4.47079 -0.79435,4.27862 -1.07077,7.01816 -2.13944,21.2034 -0.99505,13.20813 -0.63235,23.09103 1.36972,37.32323 0.18867,1.3413 0.47282,3.3531 0.63143,4.4708 0.15862,1.1177 0.38225,2.0322 0.49695,2.0322 0.11471,0 0.322,0.7316 0.46064,1.6257 0.13863,0.8942 0.86051,3.8205 1.60417,6.503 0.74364,2.6825 1.47524,5.4259 1.62577,6.0965 0.15053,0.6707 1.70842,5.426 3.46198,10.5674 6.20551,18.1944 15.46575,38.9754 25.80242,57.9036 9.96528,18.2483 33.05234,55.9942 34.60408,56.5756 0.39773,0.1491 0.72314,0.65 0.72314,1.1132 0,2.1841 48.66587,69.9517 60.22905,83.8695 0.41611,0.5009 4.85809,6.2146 9.87108,12.6972 5.01298,6.4827 9.56349,12.3354 10.11224,13.006 1.26192,1.5422 11.25445,14.1375 14.48704,18.2605 1.34124,1.7107 3.06769,3.8803 3.83656,4.8212 0.76887,0.941 4.7838,5.9174 8.92205,11.0588 4.13826,5.1414 7.89869,9.7671 8.3565,10.2792 0.45782,0.5121 1.63975,1.9753 2.62652,3.2515 1.72839,2.2353 15.01002,18.9247 17.04856,21.4228 0.54725,0.6706 4.94473,6.1727 9.77218,12.2268 4.82745,6.0541 9.23624,11.5409 9.79731,12.193 0.56108,0.6521 3.99863,5.0264 7.63902,9.7207 3.64038,4.6944 7.29648,9.1895 8.12465,9.9894 0.82818,0.7998 1.50578,1.718 1.50578,2.0405 0,0.3224 0.82303,1.4999 1.82896,2.6167 1.00593,1.1167 4.47045,5.5024 7.69894,9.7461 3.22849,4.2436 6.79495,8.7785 7.92549,10.0775 1.13052,1.299 2.0555,2.5831 2.0555,2.8534 0,0.2703 0.82303,1.4022 1.82896,2.5154 1.71807,1.9011 10.11832,12.7679 12.80126,16.5599 0.66982,0.9468 6.92121,9.403 13.89196,18.7916 40.87478,55.0528 74.60598,107.0504 100.98071,155.6647 6.11074,11.2634 22.38178,43.4038 25.61682,50.6012 0.15072,0.3353 -15.45865,0.6097 -34.68749,0.6097 h -34.96151 z m 176.14356,-352.8085 c -6.62831,-0.5428 -10.61771,-1.1221 -23.57324,-3.4232 -1.1177,-0.1985 -2.94666,-0.5536 -4.06436,-0.789 -1.11769,-0.2354 -3.23131,-0.6075 -4.69692,-0.8268 -1.46561,-0.2193 -5.48932,-1.1489 -8.94157,-2.0659 -3.45226,-0.9169 -6.82552,-1.8039 -7.49614,-1.9709 -8.45427,-2.106 -9.00803,-2.3772 -12.31777,-6.0313 -5.85569,-6.465 -34.8337,-37.4369 -43.42997,-46.4183 -28.07751,-29.3353 -54.68563,-59.0677 -62.43522,-69.7661 -1.39057,-1.9197 -4.20121,-5.5776 -6.24586,-8.1287 -9.83972,-12.2769 -33.10382,-46.264 -34.89827,-50.9838 -0.44821,-1.1788 -1.85586,-3.6703 -3.12813,-5.5366 -2.06078,-3.0229 -13.40217,-25.6794 -16.55066,-33.0629 -2.80983,-6.5894 -4.89454,-12.2719 -4.60589,-12.5548 0.17021,-0.1669 4.33319,1.3193 9.25106,3.3025 11.13866,4.4919 20.93773,7.6265 23.84077,7.6265 1.21868,0 3.0355,0.5742 4.03737,1.2759 1.75644,1.2303 5.85598,8.313 5.85598,10.1173 0,1.052 8.95667,25.1932 14.54212,39.1959 7.43866,18.6487 19.06669,37.2988 35.10423,56.3034 6.86992,8.1409 55.20802,56.019 58.71784,58.1591 5.6103,3.4208 7.53221,1.3837 3.74295,-3.9672 -5.15372,-7.2778 -20.81469,-25.9568 -37.35756,-44.5566 -8.23153,-9.2551 -20.08683,-23.5852 -24.44729,-29.5506 -4.16157,-5.6934 -8.15787,-11.552 -9.60355,-14.0789 -0.8134,-1.4218 -2.94069,-5.1455 -4.72731,-8.2751 -3.45819,-6.0576 -8.23735,-15.8817 -12.25853,-25.199 -1.35066,-3.1295 -4.35414,-9.8967 -6.67439,-15.0381 -5.23746,-11.6056 -6.72073,-15.6632 -5.58763,-15.2854 0.92475,0.3082 6.99525,7.0539 25.91598,28.7986 15.28989,17.5719 25.75463,26.8556 39.01486,34.6116 12.81696,7.4968 39.78899,12.5466 71.58088,13.4016 31.25876,0.8406 42.09042,-2.008 56.90279,-14.9646 9.95295,-8.7061 24.36408,-27.1339 24.36408,-31.1549 0,-0.7528 -0.71427,-2.2768 -1.58721,-3.3866 -1.19817,-1.5233 -1.35757,-2.2474 -0.65029,-2.9546 0.9882,-0.9882 7.28697,-1.3066 8.18007,-0.4135 0.28784,0.2879 -0.56567,1.7637 -1.89675,3.2797 -1.33099,1.516 -2.42008,3.0395 -2.42008,3.3855 0,1.5651 6.27479,10.8049 10.78224,15.877 10.38776,11.6892 21.44637,21.2959 29.09272,25.273 11.83108,6.1537 33.41889,6.7832 71.08186,2.0726 38.23053,-4.7816 51.66153,-11.3804 73.35293,-36.0388 2.0376,-2.3164 5.9367,-6.7565 8.6645,-9.8669 2.7278,-3.1104 6.7475,-7.6828 8.9325,-10.1609 2.185,-2.4781 9.2265,-9.8654 15.6478,-16.4163 6.4212,-6.5509 11.6749,-12.4734 11.6749,-13.1612 0,-0.6877 -0.454,-1.531 -1.009,-1.874 -0.5549,-0.343 -7.6233,-0.876 -15.7074,-1.1845 -20.2316,-0.772 -36.7547,-4.4174 -51.1257,-11.2797 -12.3097,-5.8779 -28.0766,-18.6478 -28.0766,-22.7396 0,-2.1424 -2.0124,-2.1374 -3.5157,0.01 -1.4413,2.0577 -0.6177,6.5475 2.3138,12.6136 6.952,14.3859 31.2502,26.94 57.2065,29.5566 3.6185,0.3648 7.1437,1.1317 7.8337,1.7044 1.109,0.9204 0.9916,1.3197 -1.0124,3.4425 -5.6797,6.0161 -27.0479,23.0326 -39.2526,31.2589 -13.4198,9.0452 -28.493,15.8771 -41.82833,18.9586 -6.39168,1.477 -9.30363,1.7338 -15.34195,1.3531 -9.31306,-0.5873 -21.59366,-3.6958 -29.24082,-7.4015 -8.26665,-4.0059 -29.75935,-21.7947 -35.72273,-29.5665 -3.85228,-5.0205 -2.62127,-8.4882 4.26757,-12.0215 3.46681,-1.7781 8.57318,-1.9014 21.54106,-0.5196 10.73705,1.1439 17.46859,0.682 20.00653,-1.3732 l 1.65639,-1.3413 -1.62525,-2.066 c -2.55957,-3.254 -7.5436,-6.3371 -14.3479,-8.8755 -4.33626,-1.6176 -6.68651,-2.1119 -7.60798,-1.6 -0.73329,0.4074 -5.53987,2.6157 -10.68128,4.9071 -5.1414,2.2915 -14.97307,7.1059 -21.84809,10.6986 -12.28653,6.4206 -12.61981,6.5388 -19.50889,6.9245 -4.01639,0.2248 -8.45808,0 -10.4032,-0.5295 -3.97753,-1.0803 -16.29277,-10.3226 -21.23315,-15.9352 -4.06077,-4.6134 -4.64945,-7.0095 -4.59133,-18.6906 0.0366,-7.3146 0.43699,-10.1988 2.20206,-15.851 2.48072,-7.9437 5.64352,-22.9329 7.20382,-34.1405 1.62753,-11.6901 1.33246,-66.88772 -0.45618,-85.35143 -2.07428,-21.41222 -3.94551,-31.41557 -7.01524,-37.50226 -5.37388,-10.65535 -16.05557,-22.27355 -33.07122,-35.97074 -5.47672,-4.40868 -9.95767,-8.29274 -9.95767,-8.6313 0,-0.33856 1.31909,-1.62168 2.9313,-2.85131 1.61224,-1.22971 3.4412,-3.45616 4.06435,-4.94762 1.49568,-3.57971 1.58615,-22.1929 0.11697,-24.08055 -2.08152,-2.67443 -15.88452,-13.93406 -22.63175,-18.4616 -18.80064,-12.61559 -50.05744,-25.52745 -77.55453,-32.03695 -13.30692,-3.1502 -18.70324,-3.78913 -36.57918,-4.331 -20.94519,-0.63493 -37.23761,0.62879 -49.64709,3.85086 -5.05925,1.31345 -9.59348,2.38822 -10.07607,2.38822 -3.34341,0 7.54112,-10.99099 16.23459,-16.39341 6.78049,-4.21362 8.43485,-4.73461 18.01919,-5.67455 21.16072,-2.07523 54.6834,2.59708 82.37032,11.4806 27.88108,8.94581 54.34869,20.98452 72.34547,32.90611 11.74703,7.78161 12.4965,8.15889 13.09705,6.59384 0.26036,-0.67855 -0.30133,-2.48729 -1.24825,-4.01941 -2.84813,-4.60843 -26.56885,-26.51892 -28.70986,-26.51892 -0.38156,0 -2.77256,-1.3298 -5.31332,-2.9551 -11.5191,-7.36869 -46.00526,-24.00144 -52.23229,-25.19175 -3.95744,-0.75649 -8.14143,-3.00806 -10.62184,-5.71605 -8.11594,-8.86057 -14.38605,-24.24884 -17.36505,-42.61774 -2.95787,-18.23855 -0.57414,-39.12449 8.44279,-73.97496 2.21004,-8.54183 4.13453,-15.59318 4.27664,-15.66964 0.1421,-0.0765 2.27023,-1.44627 4.72916,-3.04402 7.05538,-4.58439 18.68802,-12.07917 23.57325,-15.18798 2.45893,-1.5648 5.38526,-3.45341 6.50296,-4.19694 1.1177,-0.74352 4.17488,-2.60946 6.79374,-4.14651 2.61886,-1.53707 5.58712,-3.34335 6.59614,-4.01397 1.00902,-0.67061 3.62161,-2.27802 5.80576,-3.57202 2.18414,-1.294 5.25144,-3.16224 6.81622,-4.15165 3.62889,-2.29456 7.56981,-4.66472 12.19305,-7.3332 2.01186,-1.16122 6.03557,-3.53083 8.94158,-5.26581 2.90601,-1.73498 7.29551,-4.28619 9.75444,-5.66936 2.45894,-1.38318 5.93396,-3.39332 7.72227,-4.46699 1.78832,-1.07367 5.26334,-3.07585 7.72227,-4.44928 2.45894,-1.37344 6.29975,-3.56851 8.53514,-4.87794 10.29964,-6.0332 13.56697,-7.4049 16.38081,-6.87702 1.50681,0.28267 2.94007,0.83828 3.18507,1.23468 0.24491,0.39639 1.06396,0.72297 1.81993,0.72573 0.75605,0.002 2.28905,0.47417 3.40674,1.04758 1.1177,0.57342 3.86114,1.69695 6.09653,2.49674 4.24066,1.51725 5.45298,1.99445 10.16088,3.99964 1.56478,0.66648 3.75953,1.46648 4.87722,1.77779 1.1177,0.31131 4.29529,1.63228 7.06141,2.93546 2.76604,1.3032 5.45306,2.36945 5.9711,2.36945 0.51804,0 1.91277,0.48516 3.09948,1.07814 1.18671,0.59297 3.37609,1.69035 4.86527,2.43861 1.48926,0.74826 3.05428,1.36047 3.47787,1.36047 0.8275,0 6.78779,2.66475 28.32122,12.66188 9.65771,4.48366 48.80466,24.26118 52.06394,26.3033 1.7884,1.12052 24.85699,14.08178 27.45289,15.42461 1.2192,0.63072 3.6801,2.08168 5.4684,3.22435 1.7883,1.14267 4.5724,2.82137 6.187,3.73045 14.0944,7.93582 51.1444,32.69662 70.8602,47.35646 4.3743,3.25253 8.2761,5.91369 8.6706,5.91369 0.3946,0 0.8393,0.3008 0.9884,0.66845 0.149,0.36766 3.7459,3.35908 7.9932,6.64762 14.1066,10.92241 15.8411,12.34604 32.8273,26.94338 4.8663,4.18186 9.9874,8.5281 11.3802,9.65834 1.3929,1.13023 3.8472,3.32498 5.4539,4.87722 1.6068,1.55224 6.1049,5.74859 9.9958,9.32522 13.4684,12.3805 32.5896,32.2804 48.8185,50.80654 4.8945,5.58731 9.284,10.57774 9.7544,11.08985 0.4705,0.51211 1.6718,1.97528 2.6695,3.25148 0.9977,1.27621 5.2446,6.70988 9.4376,12.07483 4.1928,5.36494 10.7957,14.14394 14.6729,19.50889 6.0272,8.33989 6.9881,10.10804 6.6262,12.19306 -0.2328,1.34123 -0.5965,3.90177 -0.8082,5.69009 -0.2118,1.78831 -0.5808,4.34886 -0.8201,5.69009 -0.2394,1.34124 -0.6341,4.73384 -0.8772,7.53905 -0.2431,2.80522 -1.1672,8.84078 -2.0535,13.41236 -0.8863,4.57159 -1.7736,9.22641 -1.9717,10.34411 -0.1982,1.11769 -0.5729,3.12955 -0.8327,4.47078 -0.2598,1.34124 -0.6487,4.08468 -0.8641,6.09653 -0.2155,2.01186 -0.8113,5.12109 -1.3242,6.9094 -0.5127,1.78832 -0.8495,3.58037 -0.7483,3.98242 0.1012,0.40204 -0.067,1.31652 -0.3757,2.03217 -0.3079,0.71565 -0.6591,1.84993 -0.7805,2.52055 -0.1213,0.67062 -0.4671,2.13379 -0.7683,3.25148 -0.3012,1.1177 -0.7166,3.38894 -0.9231,5.04712 -0.2065,1.65825 -0.9121,4.95038 -1.5682,7.31583 -0.656,2.36553 -1.3708,4.94103 -1.5884,5.72342 -0.8046,2.89292 -1.3148,5.14295 -1.7052,7.51905 -0.2203,1.34124 -0.9912,4.45047 -1.7128,6.9094 -1.5735,5.36096 -1.6535,5.64872 -2.1459,7.72227 -0.2123,0.89416 -0.7616,3.08891 -1.2206,4.87722 -0.4591,1.78832 -1.1729,4.58004 -1.5864,6.20391 -0.4135,1.62379 -1.0037,3.35992 -1.3116,3.85805 -0.3078,0.49812 -0.6929,1.54722 -0.8556,2.33123 -0.7253,3.4951 -2.8357,10.74037 -4.3221,14.83797 -0.8919,2.45894 -3.1137,9.04319 -4.9374,14.63167 -3.9433,12.08446 -9.8489,28.21287 -13.5427,36.98557 -0.5647,1.3413 -1.8329,4.4505 -2.818,6.9094 -0.9853,2.459 -2.8523,6.7493 -4.149,9.5342 -1.2967,2.7848 -2.3576,5.3005 -2.3576,5.5903 0,0.7055 -3.4544,7.9085 -13.6023,28.3641 -10.6198,21.4065 -14.0316,27.7972 -19.2753,36.1036 -1.1417,1.8086 -2.0758,3.5134 -2.0758,3.7887 0,0.2751 -0.8231,1.6465 -1.829,3.0475 -2.1766,3.0314 -3.5174,5.2369 -4.5544,7.4916 -0.4197,0.9125 -1.3499,2.1461 -2.0671,2.7413 -0.7172,0.5953 -1.304,1.4181 -1.304,1.8285 0,0.4105 -0.6861,1.7374 -1.5247,2.9487 -0.8387,1.2114 -3.1845,4.7631 -5.213,7.8926 -2.0284,3.1296 -4.4515,6.5691 -5.3846,7.6434 -0.933,1.0744 -1.6965,2.2192 -1.6965,2.5441 0,0.503 -2.2939,3.6839 -8.4808,11.76 -0.685,0.8942 -3.3551,4.3837 -5.9336,7.7546 -5.5697,7.2814 -6.4369,8.3468 -9.362,11.501 -1.2295,1.3258 -2.2354,2.6528 -2.2354,2.9489 0,0.2961 -0.8854,1.4568 -1.9676,2.5793 -1.0821,1.1225 -3.3683,3.6581 -5.0804,5.6346 -7.3765,8.5156 -13.6295,15.0667 -25.8591,27.092 -7.1611,7.0413 -13.2579,12.8025 -13.5485,12.8027 -0.4979,2e-4 -4.221,3.2618 -8.8503,7.7533 -1.1345,1.1007 -2.488,2.0014 -3.0078,2.0014 -0.5198,0 -1.2376,0.522 -1.5951,1.1601 -0.6734,1.2017 -4.7725,4.5056 -10.4045,8.3861 -1.7883,1.2323 -4.1622,3.0634 -5.2754,4.0693 -1.1131,1.006 -2.245,1.829 -2.5153,1.829 -0.2704,0 -1.5544,0.9141 -2.8534,2.0312 -1.299,1.1171 -2.6515,2.0316 -3.0055,2.0322 -0.354,5e-4 -1.4514,0.765 -2.4386,1.6988 -0.9872,0.9338 -3.464,2.5513 -5.5039,3.5945 -2.04,1.0432 -4.1881,2.4739 -4.7736,3.1794 -0.5855,0.7055 -1.3928,1.2827 -1.794,1.2827 -0.4012,0 -2.2769,0.9921 -4.1681,2.2047 -3.9962,2.5623 -6.4836,3.971 -13.193,7.4718 -2.6824,1.3996 -5.9746,3.1918 -7.3158,3.9826 -9.83914,5.8014 -46.24728,20.2052 -54.46231,21.5465 -1.34124,0.219 -3.44454,0.7914 -4.67401,1.2721 -1.22947,0.4808 -2.23539,0.6554 -2.23539,0.3882 0,-0.2671 -0.45724,-0.1231 -1.01609,0.3202 -1.44659,1.1474 -10.93181,3.1673 -16.86706,3.5918 -0.67062,0.048 -1.5851,0.372 -2.03218,0.7202 -0.53365,0.4155 -0.82498,-3.601 -0.84815,-11.6942 -0.0406,-14.2513 -0.7867,-17.55 -6.83136,-30.2103 -5.19855,-10.8883 -5.088,-10.4023 -3.71385,-16.3278 1.75475,-7.566 5.61881,-14.5972 11.2381,-20.4491 6.25788,-6.5169 12.26508,-9.493 21.89954,-10.8494 8.8598,-1.2473 9.54627,-2.7854 1.62575,-3.6426 -5.99305,-0.6487 -110.67175,0.1117 -111.36903,0.8089 -1.01536,1.0154 1.81985,2.8018 6.52264,4.1097 11.69176,3.2515 19.16041,9.149 24.10502,19.0336 6.02784,12.0502 5.91558,15.8258 -0.88359,29.7129 l -5.14897,10.5167 0.0154,16.7103 0.0146,16.7104 h -3.67296 c -2.02022,0 -7.14805,-0.2846 -11.3953,-0.6324 z m 83.31922,-131.866 c 2.2354,-0.2164 8.63675,-0.8023 14.22524,-1.302 10.05374,-0.8989 49.04673,-6.1091 51.00762,-6.8156 4.74017,-1.7077 -6.17318,-1.8907 -88.60288,-1.4852 -49.29044,0.2425 -91.63083,0.675 -94.08976,0.9612 -3.19465,0.3717 -4.47079,0.8673 -4.47079,1.7361 0,1.5977 5.66446,2.9823 17.07028,4.1727 4.91787,0.5133 14.42845,1.5949 21.13463,2.4038 10.52123,1.2688 16.81846,1.4191 45.92719,1.0964 18.55376,-0.2056 35.56308,-0.551 37.79847,-0.7674 z M 1163.4585,927.2172 c 0.2281,-0.59446 -0.6371,-3.42934 -1.9225,-6.29975 -2.3856,-5.32698 -2.8569,-7.25341 -1.7731,-7.24804 0.9122,0.008 5.0649,2.64199 10.7535,6.82974 4.8648,3.58118 7.3329,4.58637 7.3329,2.9864 0,-0.41147 -4.3895,-5.24122 -9.7544,-10.73273 -5.365,-5.49151 -9.7545,-10.2438 -9.7545,-10.56065 0,-0.31678 2.2862,-2.12403 5.0805,-4.01607 7.2892,-4.93575 18.4928,-14.56436 18.4928,-15.89316 0,-1.86359 -1.3865,-1.33214 -7.6364,2.92698 -5.6546,3.85349 -11.8725,7.04304 -11.8725,6.09027 0,-0.24232 2.2476,-3.99664 4.9946,-8.3429 5.5362,-8.75884 8.9548,-15.56834 8.3264,-16.58507 -0.8636,-1.39741 -2.0162,-0.48391 -6.5336,5.17782 -7.8108,9.78923 -16.3403,17.15896 -24.8666,21.48498 -7.5771,3.84447 -20.748,5.65579 -26.1431,3.59524 -1.2978,-0.4956 -4.4735,-2.73246 -7.0572,-4.97078 l -4.6976,-4.06972 -36.0251,0.0439 c -47.5297,0.0577 -60.793,1.33327 -77.34664,7.43679 -9.89263,3.64751 -18.42427,9.30037 -18.42427,12.20736 0,3.56005 32.13761,12.85416 50.61101,14.63663 11.8683,1.14509 43.3185,0.36408 53.03,-1.31702 22.8667,-3.95819 35.3858,-6.81153 44.9834,-10.25249 2.3869,-0.85571 5.5739,-1.55591 7.0821,-1.55591 6.8226,0 17.4855,6.0684 26.3765,15.01119 4.5681,4.59484 6.0111,5.32593 6.7438,3.41682 z M 938.43806,886.88208 c 0.68208,-1.31905 1.2402,-3.09769 1.2402,-3.95259 0,-1.98673 4.00704,-11.72045 7.32997,-17.80544 4.0798,-7.47101 8.24536,-12.50032 16.76408,-20.24039 18.83575,-17.11385 21.24412,-19.82014 17.63831,-19.82014 -5.1019,0 -44.41012,33.04302 -49.92675,41.96907 -1.61533,2.61362 -1.61525,2.61899 0.0805,10.93831 0.93285,4.57784 2.05575,8.99523 2.49518,9.81639 1.17379,2.1932 2.96844,1.82221 4.37886,-0.90521 z m 10.62064,-53.31902 c 5.11182,-1.32417 13.15696,-5.1914 20.28396,-9.75047 10.67356,-6.82786 38.71594,-20.09452 56.09344,-26.53748 17.8111,-6.60376 41.6996,-13.84586 52.0237,-15.77168 11.0919,-2.06903 50.1416,-2.58548 60.4785,-0.79984 9.2952,1.60567 17.7313,4.34902 26.9051,8.74921 7.9395,3.80822 10.9727,5.99932 19.7031,14.2332 5.6518,5.33017 8.7473,7.18675 8.7473,5.24614 0,-1.1709 -6.5128,-10.85244 -10.7479,-15.977 -6.3364,-7.66726 -16.8167,-18.13997 -22.416,-22.39951 -11.1418,-8.47613 -27.9964,-15.35428 -46.0909,-18.8092 -8.646,-1.65085 -12.2024,-1.86166 -31.2955,-1.85508 -24.6812,0.008 -35.615,1.32373 -57.3074,6.8936 -11.451,2.94021 -32.63489,9.777 -42.67571,13.77292 -14.25604,5.67345 -38.38317,20.33913 -48.08299,29.22727 -6.49151,5.94827 -7.96508,9.21291 -8.60302,19.05943 -0.66005,10.1882 0.83596,12.61071 9.53952,15.44763 2.52039,0.82149 8.76608,0.48277 13.4448,-0.72914 z m -7.55027,-74.8542 c 1.40928,-0.72877 4.59183,-2.70553 7.07222,-4.39281 22.23705,-15.12625 72.12535,-34.22757 101.89585,-39.01404 20.1792,-3.24439 52.814,-3.47318 66.8924,-0.46894 19.5312,4.16782 32.8767,10.04179 44.9563,19.78733 11.7685,9.49461 13.0855,10.21386 13.0855,7.14632 0,-3.19436 -17.2724,-23.26588 -25.4376,-29.5599 -19.4962,-15.02846 -43.936,-20.64696 -78.6098,-18.07169 -31.5632,2.34422 -48.9413,6.89667 -76.13892,19.94567 -25.59526,12.2802 -54.08458,31.93492 -58.408,40.29559 -0.96284,1.8618 -0.94821,2.40731 0.1047,3.91056 1.46593,2.09286 1.3727,2.08428 4.58735,0.42191 z m -51.82171,469.03404 c -0.89415,-0.1035 -7.56189,-0.6289 -14.81716,-1.1675 -7.25528,-0.5386 -12.99496,-1.2972 -12.75475,-1.6859 0.2402,-0.3886 10.01716,-0.7284 21.72656,-0.755 11.70948,-0.027 23.0274,-0.3345 25.15103,-0.6841 2.12362,-0.3495 3.86113,-0.3419 3.86113,0.017 0,1.7623 -17.29861,4.9548 -23.16681,4.2755 z m -121.1177,-85.3732 c -6.64838,-1.0692 -23.01712,-6.9986 -31.29551,-11.3362 -11.60724,-6.0819 -39.87883,-28.8122 -39.79942,-31.9987 0.0636,-2.5526 11.47315,-13.3744 19.07122,-18.0887 1.78832,-1.1095 4.71465,-2.4738 6.50297,-3.0317 1.78831,-0.5578 5.33138,-2.268 7.87349,-3.8004 2.54209,-1.5324 6.15455,-3.3269 8.02768,-3.9878 4.46898,-1.5767 19.63118,-1.5642 27.18096,0.023 7.37395,1.5497 30.60223,12.7146 41.4564,19.9263 4.47078,2.9705 12.5182,8.021 17.88315,11.2233 5.36494,3.2023 10.84401,6.698 12.17582,7.7681 2.27563,1.8287 2.35269,2.0741 1.281,4.0765 -1.44398,2.6981 -10.50895,10.2153 -20.43117,16.9426 -7.31319,4.9583 -13.61182,7.848 -23.5083,10.785 -4.4542,1.3219 -21.50451,2.2895 -26.41829,1.4991 z m -134.53006,-66.3183 c -11.04141,-3.2445 -20.48094,-6.7682 -23.749,-8.8653 -5.1377,-3.2968 -7.29204,-7.9502 -10.33995,-22.3342 -4.70838,-22.2203 -8.35171,-49.39065 -10.23345,-76.31674 -1.3489,-19.30145 5.95043,-44.59269 15.26528,-52.89226 3.24414,-2.89049 10.68914,-5.99696 14.42545,-6.01907 3.42199,-0.0203 17.00998,2.55795 25.30188,4.8009 10.38567,2.8092 30.63874,6.5371 40.03348,7.36883 11.38824,1.00821 34.23313,1.01048 44.57305,0.008 17.93849,-1.74523 47.78846,-11.1143 47.78846,-14.99941 0,-1.39952 -4.48259,-4.24465 -13.81879,-8.77071 -18.58791,-9.01124 -22.39795,-9.55033 -73.29453,-10.37003 -31.79596,-0.51211 -41.71109,-0.91359 -43.48857,-1.76109 -4.75631,-2.26766 -15.79745,-21.92905 -25.48885,-45.38881 -8.13713,-19.6974 -9.65575,-25.70329 -9.70647,-38.38726 -0.0277,-6.93087 0.0223,-7.11753 2.20703,-8.22889 4.8086,-2.44615 17.65503,-4.86725 30.68586,-5.7832 11.41802,-0.80259 19.31654,0.50975 35.7663,5.94258 46.3893,15.32091 86.13161,35.49074 103.14617,52.34837 15.5872,15.4434 24.67467,32.2456 23.91303,44.21373 -0.21655,3.40292 -0.50828,3.98697 -2.10441,4.21343 -1.01915,0.14461 -5.46615,-1.42601 -9.88223,-3.4903 -11.13049,-5.2066 -21.18602,-7.12652 -21.18602,-4.04882 0,0.59014 2.55893,4.04386 5.68653,7.67496 3.12758,3.63109 5.92907,7.56847 6.22552,8.74965 0.62301,2.48226 -0.94094,10.87613 -2.63785,14.1576 -1.60566,3.10501 -1.52369,5.22473 0.40813,10.55407 2.18646,6.03166 3.18776,24.57868 1.7673,32.73551 -2.24333,12.88213 -6.15746,20.35493 -19.18914,36.63542 -12.994,16.23344 -16.6466,25.06364 -16.6466,40.24304 0,4.9817 -0.83245,7.1599 -4.21312,11.0242 -10.31385,11.789 -37.62123,24.7352 -57.1586,27.0982 -9.15899,1.1078 -50.19369,1.0224 -54.05589,-0.1125 z"
       id="path16" />
  </g>
  <path
     d="M0 0h512v512H0z"
     fill="#000"
     fill-opacity="0"
     id="path2" />
</svg>
